<svg width="48" height="48" viewBox="0 0 48 48" fill="none" xmlns="http://www.w3.org/2000/svg">
<g opacity="0.4">
<path opacity="0.4" d="M23.819 3L4 13.6453V34.9375L23.8207 45.5829L43.6397 34.9375L43.6481 13.6453L23.819 3ZM40.4915 31.5557L35.8206 29.0468C35.7852 29.2348 35.701 29.4119 35.5747 29.5655C35.4096 29.763 35.1856 29.9056 34.9262 29.9745C34.6634 30.045 34.3838 30.0811 34.0957 30.0811C33.5971 30.0811 33.0598 29.9698 32.5578 29.7677C32.6 29.915 32.6404 30.0607 32.6808 30.2049C32.7398 30.4164 32.7987 30.6311 32.861 30.8396L38.9166 34.0913L25.3956 41.3548V34.61C25.2424 34.8545 25.0941 35.1021 24.9678 35.3403C24.4507 36.3244 24.2149 37.3916 24.2839 38.4228V38.4619C24.2957 38.755 24.1879 39.0386 23.9841 39.2612C23.7786 39.4837 23.4939 39.6263 23.1823 39.6623H23.1655C23.1166 39.6702 23.0661 39.6733 23.0155 39.6733C22.7309 39.6733 22.463 39.5824 22.2491 39.4288V41.3548L8.72483 34.0929L11.7113 32.4897C11.9791 32.0055 12.2874 31.5636 12.6327 31.1702C13.0252 30.7236 13.4682 30.335 13.9499 30.0168L14.0005 29.9824C14.3946 29.7206 14.7787 29.4683 15.1863 29.2239C14.7635 29.1675 14.3626 29.1189 14.0005 29.1189C13.6922 29.1189 13.453 29.1549 13.2711 29.227C13.1111 29.2913 12.941 29.3242 12.7658 29.3242C12.567 29.3242 12.3666 29.2787 12.188 29.1941C12.0819 29.144 11.9842 29.0797 11.8983 29.0045L7.14989 31.5542V17.0287L11.8259 19.5408C11.8596 19.3543 11.9421 19.1772 12.0684 19.0252C12.2335 18.8246 12.4575 18.682 12.7186 18.6115C12.9831 18.5394 13.2627 18.5033 13.5541 18.5033C14.0527 18.5033 14.59 18.6146 15.0937 18.8168C15.0516 18.6694 15.0111 18.5237 14.9724 18.3858V18.378C14.9134 18.1695 14.8545 17.958 14.7921 17.7511L8.72651 14.4931L22.2458 7.22804V13.9869C22.4024 13.7378 22.554 13.4855 22.682 13.2426C23.1991 12.2584 23.435 11.1928 23.3659 10.1601V10.1225H23.3642C23.3541 9.82629 23.4619 9.54265 23.6674 9.31855C23.8729 9.09603 24.1593 8.95342 24.4726 8.91894H24.4894C24.5383 8.91111 24.5871 8.90954 24.636 8.90954C24.9173 8.90954 25.1817 8.9973 25.394 9.14774V7.22804L38.9233 14.4916L35.9385 16.0947C35.6707 16.5789 35.3624 17.0209 35.0188 17.4142C34.6263 17.8624 34.1833 18.251 33.7016 18.5692L33.6494 18.6036C33.2552 18.8653 32.8711 19.1176 32.4635 19.3621C32.8863 19.4185 33.2872 19.4671 33.6494 19.4671C33.9576 19.4671 34.1968 19.4311 34.3787 19.359C34.5387 19.2947 34.7089 19.2618 34.8824 19.2618C35.0794 19.2618 35.2765 19.3057 35.4551 19.3903C35.5629 19.442 35.6622 19.5063 35.7482 19.5815L40.4949 17.0318L40.4881 31.5573L40.4915 31.5557Z" fill="white"/>
</g>
<path d="M39.2154 25.021C39.2087 24.9661 39.1581 24.9238 39.0975 24.9238H39.0857C38.9358 24.9332 38.7876 24.9363 38.6376 24.9363C37.4754 24.9363 36.2963 24.6778 35.2014 24.181C34.7955 23.9961 34.3929 23.7751 34.0038 23.562C33.554 23.3144 33.0891 23.059 32.6108 22.8552C32.0482 22.6155 31.5108 22.476 31.0173 22.44C30.9297 22.4337 30.8438 22.4305 30.7596 22.4305C30.6366 22.4305 30.517 22.4368 30.4008 22.4509C30.298 22.4635 30.1986 22.4791 30.1009 22.5026C30.4901 22.0153 31.0527 21.8539 31.6742 21.7677C31.8679 21.741 32.0684 21.7206 32.2705 21.7018C32.321 21.6971 32.3732 21.6924 32.4255 21.6862C32.7236 21.6564 33.0268 21.6219 33.3148 21.5577C33.901 21.4276 34.6506 21.0797 34.9976 20.492V20.4873C35.0229 20.4435 35.0144 20.3886 34.9757 20.3541C34.9656 20.3447 34.9555 20.3385 34.9437 20.3338C34.9268 20.3259 34.9066 20.3212 34.8881 20.3212C34.8713 20.3212 34.8544 20.3244 34.8376 20.3306C34.5799 20.4341 34.3036 20.4889 34.0139 20.5124C33.896 20.5218 33.7764 20.5265 33.6534 20.5265C33.1599 20.5265 32.6394 20.456 32.129 20.387C32.0263 20.3729 31.9235 20.3588 31.8208 20.3463C31.3744 20.2883 30.8825 20.2241 30.4075 20.2241C29.8415 20.2241 29.3008 20.315 28.8915 20.6127C29.3834 19.743 30.1144 19.3465 30.8219 19.0143C31.6338 18.635 32.2621 18.2182 32.9914 17.7355L33.0436 17.701C33.1447 17.6336 33.2424 17.5631 33.3401 17.4895C33.6281 17.2701 33.8943 17.0193 34.1385 16.7388C34.6085 16.2045 34.9993 15.5619 35.3058 14.816C35.3311 14.769 35.3143 14.7126 35.2688 14.6812L35.262 14.6765C35.2418 14.6624 35.2166 14.6562 35.193 14.6562C35.161 14.6562 35.129 14.6687 35.1054 14.6906L35.1003 14.6953C34.2345 15.6074 33.0891 16.3094 31.7887 16.7263C31.3609 16.8626 30.9078 16.9723 30.4698 17.0773C29.9645 17.198 29.4423 17.3234 28.9505 17.4942C27.987 17.8264 27.2896 18.3075 26.9073 18.8952C26.7826 18.1069 27.293 17.5208 27.832 16.9018C28.051 16.6495 28.2784 16.3894 28.4603 16.1136C28.777 15.6356 29.0431 14.8959 28.841 14.255C28.8258 14.2064 28.7787 14.1719 28.7248 14.1704H28.7214C28.6692 14.1704 28.6237 14.2001 28.6052 14.244C28.2885 14.9852 27.4985 15.5337 26.7355 16.0634C26.6512 16.1214 26.567 16.1809 26.4845 16.2389C26.2301 16.4176 25.9572 16.6103 25.6995 16.8188C25.5968 16.9018 25.4957 16.988 25.4014 17.0758C24.9988 17.4487 24.6804 17.8703 24.6164 18.3529C24.3048 17.4158 24.5187 16.6558 24.768 15.9553C25.0544 15.1498 25.1824 14.4399 25.3323 13.6156L25.3407 13.5655C25.3694 13.4087 25.3896 13.2505 25.4014 13.0891C25.4199 12.8446 25.4199 12.5954 25.4014 12.3431C25.3458 11.6019 25.1285 10.8324 24.7512 10.0426C24.7377 9.99716 24.6939 9.96582 24.6434 9.96582C24.6383 9.96582 24.635 9.96582 24.6299 9.96582H24.6148C24.5541 9.97366 24.5086 10.0238 24.5103 10.0802V10.0865C24.5912 11.301 24.3166 12.5515 23.7136 13.7002C23.5148 14.0779 23.2773 14.4524 23.0482 14.8144C22.7821 15.2328 22.5075 15.6654 22.2886 16.1104C22.2751 16.1371 22.2633 16.1621 22.2515 16.1872C22.1218 16.4615 22.0224 16.7279 21.9534 16.9849C21.8102 17.5161 21.7933 18.0098 21.9096 18.4454C21.2223 17.9706 21.1364 17.2199 21.0471 16.427C21.0101 16.1042 20.973 15.7719 20.8922 15.4554C20.7524 14.91 20.3784 14.2127 19.7467 13.8898H19.7434C19.7249 13.8789 19.7063 13.8757 19.6878 13.8757C19.6558 13.8757 19.6238 13.8867 19.6002 13.9102C19.5631 13.9447 19.553 13.9964 19.5733 14.0403C19.9135 14.7737 19.772 15.681 19.6339 16.5586C19.6187 16.6542 19.6036 16.7498 19.5901 16.8454C19.4537 17.7543 19.2869 18.8701 19.8764 19.5706C18.9416 19.113 18.5154 18.4329 18.16 17.7747C17.7524 17.0193 17.3043 16.4348 16.7872 15.7578L16.7501 15.7092C16.0528 14.7972 15.0101 14.0889 13.6508 13.6046C13.6339 13.5968 13.6171 13.5937 13.6003 13.5937C13.5632 13.5937 13.5278 13.6093 13.5059 13.6391L13.5009 13.6454C13.4655 13.6908 13.4722 13.7519 13.516 13.7895L13.5211 13.7942C14.5014 14.5997 15.2561 15.6654 15.7041 16.8752C15.8507 17.2732 15.9686 17.6948 16.0814 18.1022V18.11C16.1185 18.2354 16.1539 18.3608 16.1892 18.4877C16.2886 18.834 16.3964 19.1819 16.5295 19.5173C16.8866 20.4137 17.4037 21.064 18.0354 21.4182C17.9478 21.4307 17.8636 21.4354 17.7793 21.4354C17.0567 21.4354 16.4874 21.0076 15.8911 20.5579C15.6199 20.3541 15.3403 20.1426 15.0438 19.9733C14.6547 19.7508 14.1039 19.5549 13.5598 19.5549C13.3863 19.5549 13.2128 19.5753 13.0461 19.6207C12.9939 19.6348 12.9568 19.6787 12.9568 19.7304C12.9568 19.7806 12.9871 19.8245 13.0377 19.8417C13.5969 20.0486 14.0534 20.4701 14.4728 20.9496C14.6362 21.1361 14.7945 21.332 14.9512 21.5279C14.9663 21.5467 14.9815 21.5655 14.995 21.5827C15.0573 21.6611 15.1196 21.7379 15.1819 21.8147C15.7765 22.5465 16.5059 23.4445 17.4542 23.5526C17.0955 23.656 16.7619 23.6968 16.4469 23.6968C15.8742 23.6968 15.3622 23.5604 14.8787 23.4116C14.0129 23.1451 13.2482 23.026 12.3639 22.8866L12.3117 22.8787C12.0135 22.8317 11.7103 22.8082 11.4021 22.8082C10.4824 22.8082 9.51888 23.0151 8.52507 23.4272C8.47116 23.4413 8.43748 23.4883 8.44421 23.5401V23.5526C8.45264 23.6074 8.50317 23.6498 8.56381 23.6498H8.5756C8.72383 23.6404 8.87374 23.6372 9.02366 23.6372C10.1876 23.6372 11.3667 23.8958 12.4599 24.3926C12.8658 24.5775 13.2684 24.7984 13.6575 25.0116C14.1073 25.2592 14.5722 25.5146 15.0506 25.7183C15.6132 25.9581 16.1488 26.0976 16.6423 26.1336C16.7299 26.1399 16.8175 26.1446 16.9034 26.1446C17.0247 26.1446 17.1443 26.1367 17.2605 26.1242C17.3633 26.1117 17.4643 26.0944 17.562 26.0725C17.1729 26.5599 16.6103 26.7213 15.9871 26.8075C15.7934 26.8341 15.5946 26.8545 15.3925 26.8733C15.3403 26.878 15.2897 26.8827 15.2375 26.889C14.9394 26.9187 14.6379 26.9532 14.3481 27.0175C13.762 27.1475 13.0124 27.4954 12.6654 28.0831V28.0878C12.6384 28.1332 12.6486 28.1865 12.6873 28.221C12.6974 28.2304 12.7075 28.2367 12.7193 28.2414C12.7361 28.2492 12.7564 28.2539 12.7766 28.2539C12.7934 28.2539 12.8103 28.2508 12.8271 28.2445C13.0848 28.1411 13.3611 28.0862 13.6508 28.0627C13.7687 28.0533 13.89 28.0486 14.0113 28.0486C14.5048 28.0486 15.0253 28.1191 15.5357 28.1881C15.6384 28.2022 15.7412 28.2163 15.8439 28.2288C16.2903 28.2868 16.7838 28.3511 17.2605 28.3511C17.8248 28.3511 18.3655 28.2602 18.7731 27.9624C18.2813 28.8306 17.5519 29.2286 16.8428 29.5593C16.0309 29.9385 15.4026 30.3554 14.6732 30.838L14.6227 30.8725C14.5216 30.9383 14.4239 31.0089 14.3279 31.0825C14.0399 31.3035 13.7738 31.5526 13.5278 31.8332C13.0579 32.3691 12.6671 33.01 12.3605 33.756C12.3353 33.803 12.3521 33.8594 12.3976 33.8908L12.4026 33.8939C12.4245 33.908 12.4498 33.9158 12.4751 33.9158C12.5071 33.9158 12.5374 33.9049 12.5626 33.8829L12.5677 33.8782C13.4335 32.9662 14.5789 32.2641 15.8793 31.8473C16.3071 31.7109 16.7603 31.6012 17.1982 31.4962C17.7035 31.3756 18.2257 31.2502 18.7176 31.0794C19.6811 30.7472 20.3801 30.2661 20.7608 29.6784C20.8854 30.4651 20.375 31.0527 19.836 31.6717C19.617 31.924 19.3896 32.1842 19.2077 32.46C18.8911 32.938 18.6266 33.6776 18.827 34.3186C18.8422 34.3672 18.8894 34.4016 18.945 34.4016H18.9466C18.9989 34.4016 19.0443 34.3719 19.0629 34.3264C19.3795 33.5852 20.1695 33.0367 20.9326 32.507C21.0168 32.449 21.101 32.3895 21.1836 32.3315C21.4345 32.1544 21.7057 31.9648 21.9601 31.7595C22.0628 31.6764 22.1639 31.5903 22.2582 31.5025C22.6659 31.1264 22.9876 30.7033 23.0516 30.2175C23.3632 31.1546 23.1493 31.9146 22.9 32.6151C22.6136 33.4206 22.4856 34.1321 22.3357 34.9548L22.3273 35.0034C22.2902 35.204 22.2683 35.4093 22.2582 35.6146C22.2515 35.7697 22.2515 35.9264 22.2582 36.0847C22.2953 36.8683 22.516 37.6863 22.9185 38.5262C22.932 38.5717 22.9758 38.603 23.0263 38.603C23.0314 38.603 23.0348 38.603 23.0398 38.603H23.0533C23.1139 38.5952 23.1594 38.5451 23.1577 38.4886V38.4824C23.0769 37.2679 23.3514 36.0173 23.9561 34.8686C24.1549 34.491 24.3924 34.1164 24.6215 33.7544C24.8876 33.336 25.1605 32.9035 25.3812 32.4584C25.3913 32.4381 25.3997 32.4193 25.4098 32.3989C25.5378 32.1309 25.6372 31.8692 25.7079 31.6153C25.8595 31.0715 25.8781 30.5669 25.7602 30.1219C26.4474 30.5967 26.5333 31.3489 26.6226 32.1403C26.6597 32.4631 26.6967 32.7954 26.7776 33.1119C26.9174 33.6573 27.2913 34.3546 27.923 34.6774H27.928C27.9449 34.6884 27.9651 34.6915 27.9836 34.6915C28.0156 34.6915 28.0476 34.679 28.0729 34.6571C28.11 34.6226 28.1201 34.5709 28.0982 34.5286C27.7579 33.7952 27.8994 32.8878 28.0375 32.0102C28.0527 31.9146 28.0678 31.8191 28.0813 31.7235C28.2178 30.8145 28.3845 29.6988 27.795 28.9983C28.7298 29.4559 29.156 30.136 29.5131 30.7942C29.9207 31.5495 30.3688 32.134 30.8876 32.8126L30.9246 32.8612C31.622 33.7732 32.6647 34.4816 34.024 34.9658C34.0408 34.9736 34.0577 34.9768 34.0745 34.9768C34.1116 34.9768 34.147 34.9611 34.1689 34.9313L34.1739 34.925C34.2093 34.8796 34.2025 34.8185 34.1587 34.7809L34.152 34.7762C33.1717 33.9707 32.4154 32.9066 31.969 31.6953C31.8224 31.2972 31.7045 30.8757 31.5917 30.4682C31.5563 30.3413 31.5226 30.2159 31.4855 30.089C31.3862 29.7411 31.2784 29.39 31.1436 29.0547C30.7865 28.1583 30.2694 27.508 29.6377 27.1538C29.7253 27.1413 29.8095 27.1366 29.8938 27.1366C30.6164 27.1366 31.184 27.5644 31.7803 28.0141C32.0515 28.2179 32.3311 28.4294 32.6276 28.5987C33.0167 28.8212 33.5675 29.0171 34.1116 29.0171C34.2851 29.0171 34.4586 28.9967 34.6253 28.9513C34.6775 28.9372 34.7146 28.8933 34.7163 28.8431C34.7163 28.793 34.686 28.7491 34.6371 28.7319C34.0813 28.5266 33.6281 28.1082 33.2104 27.6333C33.0453 27.4453 32.887 27.2494 32.7303 27.0551C32.7135 27.0347 32.6967 27.0143 32.6815 26.9939C32.6192 26.9156 32.5552 26.8372 32.4928 26.7604C31.8982 26.0286 31.1689 25.1307 30.2205 25.0225C30.5793 24.9191 30.9128 24.8784 31.2278 24.8784C31.8005 24.8784 32.3126 25.0147 32.796 25.1636C33.6618 25.43 34.4266 25.5491 35.3109 25.6886L35.3631 25.6964C35.6613 25.7434 35.9645 25.7669 36.271 25.7669C37.1907 25.7669 38.1542 25.56 39.148 25.1479C39.2019 25.1338 39.2356 25.0868 39.2289 25.0351V25.0225L39.2154 25.021ZM28.0021 28.5485C26.8264 29.6 25.2818 30.1626 23.6513 30.1313C22.0207 30.1015 20.5014 29.4825 19.3711 28.3887C18.2409 27.2948 17.6362 25.8578 17.6698 24.3408C17.6934 23.2533 18.0438 22.219 18.6721 21.3336C18.7294 21.2427 18.7934 21.1502 18.8708 21.0609C18.8911 21.0358 18.9146 21.0139 18.9349 20.9904C19.1185 20.7694 19.3223 20.5579 19.5429 20.3604C20.7187 19.3089 22.2633 18.7463 23.8938 18.7776C25.5243 18.8074 27.0437 19.4264 28.174 20.5203C29.3042 21.6141 29.9089 23.0511 29.8752 24.5681C29.8432 26.085 29.1779 27.4986 28.0021 28.5501V28.5485Z" fill="white"/>
<path d="M22.7891 25.2044C22.816 25.2138 22.8413 25.2232 22.8665 25.2311C23.0822 25.3063 23.254 25.3361 23.3752 25.3376C23.4359 25.3392 23.4847 25.3345 23.5218 25.3345C23.5572 25.3329 23.5807 25.3361 23.5875 25.3486C23.5942 25.3611 23.5858 25.38 23.5572 25.4082C23.5454 25.4176 23.5302 25.4301 23.5117 25.4411C23.5235 25.4411 23.5353 25.4426 23.5471 25.4426C23.6296 25.4473 23.7138 25.452 23.7947 25.4567C23.9597 25.4646 24.1231 25.4708 24.2832 25.4771C24.4432 25.4834 24.5998 25.4865 24.7531 25.4881C25.058 25.4881 25.3494 25.474 25.6189 25.427C25.7537 25.4035 25.8834 25.3721 26.0063 25.3329C26.1293 25.2938 26.2472 25.2452 26.3584 25.1919C26.5807 25.0838 26.7795 24.9521 26.9547 24.8127C26.9782 24.7939 26.9985 24.7766 27.022 24.7578C26.8873 24.8205 26.675 24.8973 26.3988 24.9741C26.1445 25.043 25.8362 25.112 25.4892 25.1668C25.1422 25.2217 24.7565 25.2609 24.3505 25.2765C23.9446 25.2922 23.5572 25.2812 23.2068 25.2515C23.0603 25.2405 22.9221 25.2232 22.7891 25.2076V25.2044Z" fill="white"/>
<path d="M25.1266 25.9662C25.1266 25.9662 25.1401 25.9613 25.1468 25.9597C25.1097 25.9629 25.0744 25.9646 25.0373 25.9662L25.012 25.9726C24.9666 25.984 24.9177 25.9953 24.8672 26.0066C24.8975 26.0034 24.9261 26.0017 24.9531 25.9985C25.0238 25.9904 25.0811 25.9791 25.1266 25.9662Z" fill="white"/>
<path d="M21.5315 23.899C21.4152 23.8849 21.2973 23.8661 21.1777 23.8457C21.267 23.8849 21.358 23.9256 21.454 23.9648C21.5129 23.9899 21.5736 24.0149 21.6359 24.04C21.673 24.0369 21.7117 24.0306 21.7471 24.0291C21.8902 24.0165 22.0267 24.0118 22.1598 24.0024L22.3602 23.9899C22.4259 23.9852 22.4933 23.9805 22.559 23.9758C22.5809 23.9742 22.6011 23.9726 22.623 23.9711L22.6162 23.9679C22.3905 23.9648 22.1564 23.957 21.9172 23.9382C21.6999 23.9726 21.5702 23.9758 21.5584 23.9429C21.555 23.9335 21.5618 23.9209 21.5769 23.9053C21.5618 23.9037 21.5466 23.9021 21.5331 23.9006L21.5315 23.899Z" fill="white"/>
<path d="M23.8608 21.6264C23.8204 21.6169 23.78 21.6075 23.7395 21.5981C23.7025 21.6122 23.6637 21.6248 23.625 21.6389C23.7261 21.7078 23.8305 21.7799 23.9366 21.8551C23.9888 21.841 24.0394 21.8269 24.0899 21.8144L23.8591 21.6264H23.8608Z" fill="white"/>
<path d="M24.4003 24.1965C24.4508 24.1698 24.5064 24.1463 24.562 24.1197C24.5788 24.1118 24.599 24.104 24.6159 24.0962C24.6058 24.093 24.5973 24.0883 24.5872 24.0852C24.471 24.0962 24.3615 24.1056 24.2588 24.1134L24.2402 24.1165C24.2402 24.1165 24.2537 24.1275 24.2588 24.1322C24.2992 24.1683 24.3295 24.1996 24.3497 24.2247C24.3666 24.2153 24.3834 24.2074 24.4019 24.198L24.4003 24.1965Z" fill="white"/>
<path d="M21.849 25.8136C21.9821 25.8559 22.1269 25.892 22.2785 25.9233L22.2667 25.9202C22.1673 25.8935 22.0713 25.87 21.9837 25.8418C21.9399 25.8277 21.8978 25.8167 21.8574 25.8026C21.8204 25.7901 21.785 25.7776 21.7496 25.7666C21.7412 25.7682 21.7311 25.7697 21.7227 25.7713C21.7631 25.7854 21.8035 25.7995 21.8473 25.812L21.849 25.8136Z" fill="white"/>
<path d="M21.69 25.7619C21.7008 25.7619 21.7115 25.7576 21.7222 25.7576C21.7093 25.7576 21.6965 25.7597 21.6836 25.7597H21.69V25.7619Z" fill="white"/>
<path d="M22.5818 24.7868C22.5986 24.7868 22.6138 24.7868 22.6306 24.7884C22.5363 24.7599 22.4436 24.7298 22.3527 24.6997C22.2769 24.6997 22.1994 24.6997 22.1236 24.6997C22.063 24.6997 22.004 24.6981 21.9434 24.6965C21.9619 24.7124 21.9821 24.7282 22.0006 24.7441C22.1893 24.7615 22.383 24.7773 22.5818 24.7884V24.7868Z" fill="white"/>
<path d="M24.3764 26.0394C24.405 26.0394 24.4353 26.0394 24.4656 26.0394H24.5027C24.5027 26.0394 24.5196 26.0379 24.5263 26.0363C24.6493 26.0171 24.7655 25.9963 24.8716 25.9739C24.7469 25.9787 24.6206 25.9803 24.4943 25.9803C24.4774 25.9835 24.4606 25.9867 24.4387 25.9899C24.3663 26.0011 24.2686 26.0155 24.1523 26.0283C24.1709 26.0283 24.1877 26.0315 24.2062 26.0331C24.2618 26.0347 24.3174 26.0394 24.3764 26.0394Z" fill="white"/>
<path d="M27.7815 22.8879C27.6198 22.855 27.384 22.7797 27.1044 22.6606C27.101 22.6638 27.0993 22.6669 27.0977 22.6716C27.1297 22.6951 27.1667 22.7171 27.2055 22.7374C27.2408 22.7562 27.2779 22.7703 27.3133 22.786C27.3874 22.7923 27.4295 22.8048 27.4329 22.8252C27.4329 22.8283 27.4329 22.8299 27.4329 22.833C27.5474 22.8738 27.6586 22.902 27.763 22.9208C27.8102 22.9286 27.8557 22.9349 27.8994 22.9412C27.8961 22.9318 27.8893 22.9208 27.8843 22.9114L27.7815 22.891V22.8879Z" fill="white"/>
<path d="M22.5227 23.228L22.4805 23.2422C22.5227 23.2705 22.5633 23.2972 22.6056 23.3256C22.6242 23.3287 22.6445 23.3319 22.6631 23.3334C22.6174 23.2988 22.5701 23.2642 22.5227 23.228V23.228Z" fill="white"/>
<path d="M22.5584 22.0122C22.518 22.0263 22.4793 22.0388 22.4388 22.053C22.3967 22.0671 22.3546 22.0812 22.3125 22.0968C22.4641 22.125 22.6309 22.1611 22.806 22.1987L22.8246 22.2034C22.8616 22.1909 22.897 22.1783 22.9341 22.1642C22.9593 22.1548 22.9863 22.147 23.0115 22.1391C22.8717 22.1 22.7403 22.0639 22.6224 22.031C22.5989 22.0247 22.5786 22.0185 22.5567 22.0122H22.5584Z" fill="white"/>
<path d="M22.6981 20.0862C22.6762 20.0956 22.6543 20.105 22.6307 20.1144C22.6054 20.1254 22.5785 20.1363 22.5498 20.1473C22.5212 20.1583 22.4926 20.1692 22.4623 20.1818C22.4016 20.2037 22.3376 20.2304 22.2685 20.2539C22.2467 20.2617 22.2231 20.2711 22.2012 20.2789C22.218 20.2742 22.2365 20.2695 22.2534 20.2664C22.4757 20.2131 22.6779 20.1724 22.848 20.1457C22.8632 20.1442 22.8766 20.141 22.8901 20.1395C22.8716 20.1348 22.853 20.1301 22.8345 20.1254C22.7857 20.1113 22.7402 20.0987 22.6964 20.0862H22.6981Z" fill="white"/>
<path d="M25.2242 22.0904C25.2882 22.081 25.3505 22.0716 25.4094 22.0637C25.4499 22.0574 25.4886 22.0543 25.5274 22.0496C25.337 22.0042 25.1366 21.9525 24.9294 21.8992C24.9058 21.9086 24.8822 21.9164 24.8586 21.9258L24.8418 21.9321C24.9024 21.9713 24.9648 22.0104 25.0271 22.0512C25.0574 22.0716 25.0877 22.0904 25.118 22.1092C25.1534 22.1029 25.1905 22.0966 25.2242 22.0919V22.0904Z" fill="white"/>
<path d="M22.0788 22.8819C22.0467 22.893 22.0145 22.904 21.9824 22.9134C22.0331 22.9464 22.0839 22.9795 22.1346 23.0125C22.1583 23.0015 22.1803 22.9921 22.2039 22.9811C22.1617 22.948 22.1194 22.9134 22.0771 22.8804L22.0788 22.8819Z" fill="white"/>
<path d="M21.731 25.7322H21.746C21.731 25.7279 21.716 25.7257 21.7031 25.7214C21.7139 25.7257 21.7224 25.7279 21.7332 25.7322H21.731Z" fill="white"/>
<path d="M27.3365 24.4695C27.3045 24.4789 27.2725 24.4867 27.2422 24.4946C27.0502 24.5416 26.8767 24.5682 26.7301 24.5823C26.6661 24.5886 26.6105 24.5917 26.5566 24.5933C26.5465 24.598 26.5364 24.6011 26.5263 24.6058C26.4892 24.6215 26.4539 24.6356 26.4168 24.6513C26.3798 24.6654 26.341 24.6795 26.304 24.6936C26.2989 24.6951 26.2922 24.6983 26.2871 24.6998C26.3023 24.6983 26.3208 24.6951 26.336 24.6936C26.8025 24.6309 27.1091 24.5902 27.1748 24.6246C27.2321 24.5729 27.286 24.5212 27.3382 24.4695H27.3365Z" fill="white"/>
<path d="M26.3405 21.1721C26.2378 21.1298 26.1333 21.0844 26.0238 21.0389C25.9902 21.0248 25.9548 21.0107 25.9211 20.9982C25.911 20.9982 25.9009 20.9982 25.8908 20.9966C25.8487 20.9935 25.8049 20.9935 25.7611 20.9919L25.6937 20.9888H25.6836C25.7746 21.0295 25.8655 21.0718 25.9582 21.1157C25.9935 21.1329 26.0289 21.1502 26.0643 21.1674C26.0676 21.1674 26.071 21.1674 26.0744 21.1706C26.3355 21.2348 26.6858 21.3539 27.0564 21.5122C27.0834 21.5232 27.1086 21.5357 27.1356 21.5467C26.9857 21.4636 26.8189 21.3821 26.6336 21.3006C26.5393 21.2583 26.4416 21.216 26.3388 21.1737L26.3405 21.1721Z" fill="white"/>
<path d="M23.3124 24.2512C23.1389 24.2736 22.9637 24.2928 22.7852 24.312C22.9704 24.3104 23.1557 24.3072 23.3427 24.3024C23.3781 24.3024 23.4118 24.2992 23.4471 24.2992C23.405 24.2848 23.3629 24.2704 23.3208 24.2544L23.3124 24.2512V24.2512Z" fill="white"/>
<path d="M24.0085 26.014C24.1601 26.0028 24.2847 25.99 24.3808 25.9788C24.1466 25.9772 23.9091 25.9692 23.6699 25.958C23.7019 25.966 23.7356 25.9708 23.771 25.9788C23.8114 25.9868 23.8569 25.9932 23.9024 26.0012C23.9361 26.0076 23.9714 26.0108 24.0085 26.0156V26.014Z" fill="white"/>
<path d="M25.7515 26.0615C25.7386 26.0637 25.7258 26.0658 25.7129 26.068C25.715 26.068 25.7193 26.0701 25.7215 26.0723L25.7494 26.0615H25.7515Z" fill="white"/>
<path d="M26.1303 25.9204C26.3021 25.8561 26.4857 25.784 26.676 25.7041C26.6676 25.7041 26.6609 25.7057 26.6524 25.7072L26.6154 25.7245C26.5918 25.7354 26.5665 25.7464 26.5429 25.7574C26.5312 25.7621 26.5177 25.7684 26.5059 25.7731L26.4671 25.7872L26.3054 25.8483C26.1033 25.9188 25.8776 25.9815 25.6367 26.0301C25.6401 26.0332 25.6451 26.0348 25.6502 26.0395C25.7748 26.0175 25.9062 25.9909 26.0393 25.9564C26.0696 25.9454 26.0999 25.9345 26.1319 25.9219L26.1303 25.9204Z" fill="white"/>
<path d="M25.2227 26.0944L25.2614 26.0912C25.2732 26.0912 25.2833 26.0912 25.2951 26.088L25.3305 26.0832L25.4736 26.0656C25.5275 26.0576 25.5831 26.0496 25.6404 26.0384C25.637 26.0352 25.632 26.032 25.6303 26.0288C25.6067 26.0336 25.5848 26.0384 25.5629 26.0432C25.4484 26.064 25.3355 26.0784 25.226 26.0896H25.2243L25.2227 26.0944Z" fill="white"/>
<path d="M25.4084 25.936C25.3726 25.9393 25.3385 25.9442 25.3027 25.9475C25.3027 25.9508 25.3027 25.9541 25.3027 25.9574C25.3181 25.9541 25.3334 25.9524 25.3488 25.9492C25.3692 25.9459 25.388 25.941 25.4067 25.936H25.4084Z" fill="white"/>
<path d="M25.2654 26.0459C25.3597 26.0349 25.4557 26.0224 25.5534 26.0051C25.8212 25.9566 26.0688 25.8876 26.2912 25.8124C26.3468 25.792 26.399 25.7732 26.4512 25.7528L26.4899 25.7387C26.5034 25.734 26.5152 25.7278 26.527 25.7231L26.5405 25.7168C26.5152 25.7184 26.4916 25.7199 26.4697 25.7199C26.4562 25.7199 26.4445 25.7199 26.4327 25.7199C26.2491 25.781 26.0385 25.8437 25.7993 25.9001C25.6629 25.9315 25.5163 25.9597 25.3647 25.9848H25.3597C25.3597 25.9848 25.3445 25.9879 25.3361 25.9895C25.3209 25.9926 25.3075 25.9942 25.2923 25.9973C25.2856 26.0114 25.2755 26.0271 25.2637 26.0443L25.2654 26.0459Z" fill="white"/>
<path d="M29.221 23.6263C29.2277 23.6169 29.2328 23.6059 29.2379 23.5981C29.2464 23.584 29.2532 23.573 29.2583 23.5621C29.2583 23.5542 29.2617 23.5464 29.2617 23.5386L29.2651 23.5072C29.2651 23.4947 29.2685 23.4853 29.2685 23.4759C29.2634 23.4477 29.2566 23.421 29.2498 23.3928C29.2498 23.4351 29.2464 23.4837 29.2345 23.5339C29.2243 23.5809 29.2057 23.6326 29.1836 23.6827L29.2006 23.6577L29.221 23.6263V23.6263Z" fill="white"/>
<path d="M28.8673 24.5068C28.852 24.5226 28.8384 24.5399 28.823 24.5556C28.7923 24.5855 28.7651 24.6138 28.7361 24.639H28.7344C28.7344 24.639 28.7378 24.65 28.7378 24.6547C28.7685 24.6264 28.7974 24.5997 28.8196 24.5745C28.8401 24.5509 28.8554 24.5289 28.8673 24.5084V24.5068Z" fill="white"/>
<path d="M28.7597 24.3974C28.7479 24.4147 28.7344 24.4335 28.7226 24.4507C28.7075 24.4727 28.6889 24.4962 28.6721 24.5181C28.7125 24.4821 28.7479 24.4507 28.7749 24.4272C28.8153 24.3927 28.8372 24.3755 28.8389 24.3771C28.8405 24.3786 28.822 24.4006 28.7866 24.4382C28.7513 24.4758 28.6974 24.5291 28.6317 24.5949C28.6131 24.6137 28.5896 24.6356 28.5694 24.656C28.5323 24.703 28.4919 24.7516 28.4531 24.7986C28.5037 24.7673 28.5458 24.7391 28.5761 24.7124L28.5795 24.7093C28.5592 24.7203 28.5475 24.7265 28.5458 24.725C28.5441 24.7234 28.5609 24.7077 28.5912 24.6842L28.6165 24.6638C28.6266 24.656 28.635 24.6482 28.6468 24.6388C28.6687 24.62 28.694 24.6012 28.7176 24.5761L28.758 24.5385C28.7715 24.5259 28.785 24.5103 28.8001 24.4962C28.8288 24.468 28.8574 24.4335 28.8877 24.399C28.945 24.3285 29.0039 24.247 29.0562 24.1561C29.1067 24.0652 29.1471 23.9743 29.1774 23.8913C29.1909 23.8489 29.2061 23.8082 29.2145 23.7706C29.2195 23.7518 29.2246 23.733 29.2296 23.7157L29.2398 23.664C29.2398 23.664 29.2431 23.6499 29.2431 23.6421L29.228 23.6703L29.1875 23.7455C29.1741 23.7737 29.1538 23.8004 29.1353 23.8301L29.105 23.8772L29.0898 23.9007L29.0713 23.9242C29.0562 23.9445 29.0393 23.9665 29.0225 23.9884C28.9686 24.0997 28.9079 24.2015 28.8439 24.2893C28.8153 24.3269 28.7866 24.363 28.758 24.3959L28.7597 24.3974Z" fill="white"/>
<path d="M19.301 24.8953C19.2707 24.8718 19.2437 24.8467 19.2168 24.8232C19.3398 24.9423 19.4661 25.0473 19.5907 25.1382C19.7407 25.2479 19.8872 25.3341 20.0203 25.3843C20.0607 25.3999 20.0978 25.4109 20.1348 25.4203C20.0742 25.3905 20.0135 25.3608 19.9529 25.3278C19.707 25.1946 19.488 25.0458 19.301 24.8953V24.8953Z" fill="white"/>
<path d="M21.4333 25.7465C21.4553 25.7544 21.479 25.7623 21.501 25.7703C21.523 25.7703 21.5449 25.7719 21.5652 25.7703C21.5804 25.7703 21.594 25.7687 21.6075 25.7671C21.599 25.7639 21.5906 25.7608 21.5821 25.7576C21.5331 25.756 21.4841 25.7528 21.4316 25.7449L21.4333 25.7465Z" fill="white"/>
<path d="M21.2687 25.6178C21.1861 25.5959 21.1053 25.5723 21.0261 25.5488C20.8745 25.5018 20.7313 25.4501 20.5898 25.3953C20.7617 25.4815 20.9284 25.5567 21.0868 25.6209C21.1289 25.6366 21.171 25.6538 21.2114 25.6679C21.3091 25.693 21.4017 25.7102 21.4893 25.7197C21.4523 25.704 21.4152 25.6883 21.3798 25.6711C21.3411 25.6523 21.304 25.635 21.2687 25.6162V25.6178Z" fill="white"/>
<path d="M21.5478 25.694C21.5343 25.6892 21.5224 25.6844 21.5089 25.678C21.4818 25.6715 21.4548 25.6651 21.4277 25.6587C21.4616 25.6731 21.4971 25.6892 21.5343 25.7036C21.5562 25.7133 21.5816 25.7213 21.6036 25.7309C21.6171 25.7309 21.6323 25.7309 21.6459 25.7325C21.6104 25.7197 21.5782 25.7053 21.5478 25.694V25.694Z" fill="white"/>
<path d="M21.3195 25.7576C21.3381 25.7608 21.3567 25.7608 21.3753 25.7624L21.3618 25.7576C21.311 25.7416 21.2569 25.7223 21.2028 25.703C21.1859 25.6982 21.1673 25.695 21.1504 25.6902C21.1673 25.7046 21.1893 25.7223 21.2146 25.74C21.2502 25.7464 21.2857 25.7528 21.3178 25.7576H21.3195Z" fill="white"/>
<path d="M20.4052 25.455C20.39 25.4581 20.3715 25.4613 20.3513 25.4628C20.3445 25.4628 20.3344 25.4628 20.326 25.4628C20.4507 25.5161 20.5753 25.5631 20.6932 25.6023C20.8684 25.6603 21.0352 25.7042 21.1851 25.7324C21.1632 25.7136 21.1447 25.6979 21.1312 25.6838C21.1278 25.6838 21.1228 25.6822 21.1194 25.6807C20.9156 25.6258 20.7033 25.5333 20.4911 25.4205C20.3378 25.339 20.1946 25.2497 20.0666 25.1604C20.0397 25.1463 20.0093 25.1337 19.9824 25.1181C19.9049 25.0758 19.8308 25.0334 19.7567 24.9911C19.6826 24.9488 19.6135 24.9049 19.5461 24.8595C19.4114 24.7702 19.285 24.6808 19.1671 24.5915C19.0189 24.4787 18.8841 24.3721 18.7578 24.2703L18.7629 24.2781C18.7932 24.3251 18.8286 24.3721 18.8639 24.4191C18.8791 24.4317 18.8858 24.4379 18.8858 24.4395C18.8858 24.4395 18.8825 24.4395 18.8808 24.4395C18.8976 24.463 18.9161 24.485 18.9347 24.5085C19.0459 24.6197 19.1756 24.742 19.3288 24.8642C19.5141 25.0115 19.7314 25.1588 19.9757 25.2904C20.0801 25.3469 20.1845 25.397 20.2873 25.4425C20.3109 25.4425 20.3311 25.444 20.3513 25.4425C20.3715 25.4425 20.3883 25.4409 20.4052 25.4393C20.4203 25.4393 20.4338 25.4362 20.4439 25.4346C20.4641 25.4315 20.4759 25.4299 20.4759 25.4315C20.4759 25.4315 20.4658 25.4362 20.4456 25.4425C20.4355 25.4456 20.422 25.4487 20.4069 25.4519L20.4052 25.455Z" fill="white"/>
<path d="M23.7429 26.0084C23.6941 25.9959 23.657 25.9865 23.6318 25.9802C23.6065 25.974 23.593 25.9693 23.593 25.9677C23.593 25.9677 23.6048 25.9677 23.62 25.9708C23.5981 25.9646 23.5762 25.9598 23.556 25.9536C23.1045 25.9301 22.6649 25.8878 22.2438 25.8235C22.1006 25.8016 21.9625 25.7765 21.8244 25.7483C21.8244 25.7483 21.8092 25.753 21.8008 25.7546L21.8682 25.7749C21.9086 25.7875 21.9507 25.7984 21.9945 25.811C22.0821 25.8376 22.1764 25.8596 22.2758 25.8846C22.4762 25.9316 22.6969 25.9755 22.9327 26.0084C22.9715 26.0131 23.0102 26.0178 23.0489 26.0225C23.1315 26.0272 23.2106 26.0304 23.2898 26.0319C23.278 26.0319 23.2646 26.0288 23.2528 26.0272C23.2005 26.0194 23.15 26.0131 23.1028 26.0069L23.0675 26.0022L23.0338 25.9959L22.9698 25.9849C22.8872 25.9708 22.8165 25.9583 22.7592 25.9442C22.702 25.9316 22.6565 25.9207 22.6278 25.9144C22.5975 25.9066 22.5824 25.9019 22.5824 25.9019C22.5824 25.9019 22.5992 25.9019 22.6295 25.9066C22.6598 25.9113 22.7053 25.9191 22.7626 25.9301C22.8199 25.941 22.8923 25.9504 22.9748 25.963L23.0388 25.9724L23.0725 25.9771L23.1079 25.9818L23.2561 25.999C23.3639 26.0116 23.4835 26.0225 23.6132 26.0304C23.684 26.0288 23.7514 26.0257 23.817 26.0225L23.7429 26.0053V26.0084Z" fill="white"/>
<path d="M23.6024 26.0713C23.6582 26.0731 23.714 26.0748 23.7665 26.0765C23.7174 26.0731 23.6701 26.0696 23.6244 26.0662C23.6058 26.0662 23.5889 26.0679 23.5703 26.0679C23.5805 26.0679 23.5906 26.0679 23.6024 26.0696V26.0713Z" fill="white"/>
<path d="M21.4239 25.8437C21.5031 25.8719 21.594 25.8985 21.6985 25.922C21.9056 25.9722 22.1549 26.0208 22.4345 26.0599C22.5205 26.0709 22.6097 26.0819 22.7024 26.0897C22.859 26.096 23.0224 26.0991 23.1909 26.0991C23.265 26.0991 23.3391 26.0991 23.4115 26.0976C23.2902 26.0897 23.1639 26.0788 23.0342 26.0631C22.8927 26.0552 22.7462 26.0411 22.5963 26.0208C22.3217 25.9816 22.064 25.922 21.8366 25.85C21.7726 25.8296 21.7102 25.8076 21.6513 25.7857C21.6277 25.7888 21.6024 25.792 21.5755 25.7935L21.626 25.8092C21.7035 25.8343 21.7759 25.8515 21.8383 25.8688C21.8703 25.8766 21.8989 25.886 21.9258 25.8923L22 25.9095C22.0892 25.9299 22.1381 25.944 22.1381 25.9456C22.1381 25.9487 22.0876 25.9409 21.9966 25.9236L21.9208 25.9095C21.8938 25.9032 21.8635 25.897 21.8315 25.8891C21.7675 25.8735 21.6951 25.8594 21.6159 25.8359L21.4913 25.8014C21.4913 25.8014 21.4795 25.7967 21.4727 25.7951C21.4222 25.7951 21.37 25.792 21.3127 25.7857C21.3009 25.7857 21.2891 25.7826 21.2773 25.781C21.2891 25.7873 21.3009 25.7935 21.3144 25.7998C21.3464 25.8155 21.3818 25.8312 21.4205 25.8453L21.4239 25.8437Z" fill="white"/>
<path d="M28.0122 24.2829C27.9752 24.3032 27.9381 24.3189 27.9027 24.333C27.8438 24.3549 27.7882 24.3675 27.736 24.3738C27.6956 24.4239 27.6534 24.4756 27.6097 24.5273C27.4749 24.684 27.3216 24.8439 27.1397 25.0022C26.9595 25.1589 26.7489 25.3109 26.5064 25.4394C26.3851 25.5036 26.2554 25.5616 26.1172 25.6102C25.9791 25.6588 25.8343 25.6995 25.686 25.7293C25.3879 25.7904 25.0746 25.8139 24.7562 25.8202C24.5962 25.8233 24.4362 25.8218 24.2745 25.8202C24.165 25.8186 24.0538 25.8155 23.941 25.8124C23.9325 25.8124 23.9241 25.8124 23.9106 25.8139C23.8786 25.8155 23.8315 25.8186 23.7692 25.8186C23.6462 25.8202 23.4693 25.8171 23.2503 25.7935C23.1914 25.7888 23.1308 25.781 23.0667 25.7716C23.0465 25.7716 23.028 25.7685 23.0078 25.7685L22.8764 25.7575C22.8326 25.7544 22.7871 25.7497 22.7433 25.745C22.6995 25.7403 22.6541 25.7356 22.6103 25.7309L22.4755 25.7152C22.3862 25.7058 22.2953 25.6901 22.2043 25.6776C22.179 25.6744 22.1555 25.6697 22.1302 25.665C22.1218 25.6697 22.1134 25.6729 22.1016 25.6776C22.5766 25.7575 23.0785 25.8076 23.5957 25.8343C24.0521 25.8562 24.5002 25.8703 24.9297 25.8547C25.1369 25.8468 25.3407 25.8312 25.5395 25.8061C25.5749 25.7951 25.6069 25.7857 25.6288 25.781C25.6591 25.7732 25.6759 25.7685 25.6759 25.77C25.6759 25.7716 25.6608 25.7779 25.6321 25.7888C25.6254 25.7904 25.617 25.7951 25.6086 25.7967C25.7938 25.77 25.9758 25.7371 26.1493 25.6917C26.2082 25.676 26.2638 25.6572 26.3211 25.64C26.3244 25.6368 26.3244 25.6353 26.3278 25.6321C26.3514 25.6149 26.3884 25.5945 26.4339 25.571C26.5266 25.5256 26.6596 25.4676 26.818 25.3877C26.9763 25.3077 27.1582 25.2059 27.3486 25.0774C27.5389 24.9489 27.7377 24.7937 27.9364 24.6167C28.0375 24.5258 28.1335 24.4333 28.2245 24.3424C28.1756 24.3518 28.1386 24.3471 28.1184 24.3267C28.0981 24.3048 28.0998 24.2672 28.1184 24.217C28.083 24.2421 28.0493 24.2641 28.0139 24.2829H28.0122Z" fill="white"/>
<path d="M26.9259 22.0153C26.8248 21.9965 26.7086 21.9698 26.5755 21.9385C26.5503 21.9322 26.5233 21.9259 26.498 21.9197C26.5486 21.951 26.5991 21.9824 26.648 22.0121C26.84 22.0748 26.9899 22.125 27.0859 22.1673C27.1263 22.161 27.1668 22.1579 27.2072 22.1579C27.2156 22.1547 27.224 22.1532 27.2325 22.1516C27.1685 22.125 27.1028 22.0968 27.0337 22.0654C26.9983 22.0497 26.9613 22.0325 26.9242 22.0153H26.9259Z" fill="white"/>
<path d="M18.4701 23.9476C18.5025 23.976 18.5383 24.0058 18.5758 24.0342C18.5622 24.0074 18.5486 23.9807 18.5366 23.9555C18.5196 23.9413 18.5025 23.9256 18.4855 23.9099C18.4701 23.8957 18.4548 23.88 18.4395 23.8643C18.4412 23.8706 18.4429 23.8768 18.4463 23.8831C18.4548 23.9036 18.4633 23.9256 18.4718 23.9461L18.4701 23.9476Z" fill="white"/>
<path d="M18.6531 24.3471C18.6767 24.3832 18.6986 24.4176 18.7205 24.449C18.7323 24.4647 18.7424 24.4803 18.7525 24.4944C18.7643 24.5085 18.7744 24.5226 18.7845 24.5352C18.8131 24.5712 18.8401 24.6026 18.8603 24.6276C18.835 24.5932 18.8097 24.5587 18.7828 24.5211C18.7238 24.4396 18.6699 24.3644 18.6211 24.2954C18.6312 24.3126 18.6413 24.3315 18.6514 24.3487L18.6531 24.3471Z" fill="white"/>
<path d="M18.607 24.1701L18.6244 24.1928L18.6297 24.1992L18.6053 24.1668C18.5966 24.1555 18.5897 24.1442 18.5827 24.1328L18.5757 24.1231L18.5723 24.1199C18.5844 24.1361 18.5949 24.1539 18.607 24.1685V24.1701Z" fill="white"/>
<path d="M18.6668 24.1997C18.653 24.1887 18.641 24.1792 18.6289 24.1682L18.6461 24.1887L18.7065 24.261C18.6927 24.2406 18.6789 24.2201 18.6668 24.1997V24.1997Z" fill="white"/>
<path d="M19.1472 23.5275C19.1893 23.6717 19.2819 23.8064 19.3998 23.9334C19.4318 23.9679 19.4655 24.0008 19.5009 24.0337C19.5346 24.0446 19.5716 24.0572 19.6121 24.0728C19.6559 24.0901 19.703 24.1089 19.7536 24.1308C19.6491 24.0446 19.5548 23.9616 19.4807 23.8848C19.42 23.8221 19.3729 23.7641 19.3375 23.714C19.3122 23.6873 19.287 23.6607 19.2651 23.6356C19.2095 23.5698 19.164 23.504 19.127 23.4429L19.1337 23.4758C19.1371 23.4946 19.1438 23.5118 19.1489 23.5306L19.1472 23.5275Z" fill="white"/>
<path d="M18.6784 23.5684C18.6937 23.5919 18.7141 23.617 18.7361 23.6405V23.6358C18.7277 23.6076 18.7175 23.5809 18.7124 23.5527L18.6971 23.4697C18.6903 23.4148 18.6852 23.3584 18.6852 23.3036C18.6852 23.2801 18.6886 23.2581 18.6886 23.2346L18.6818 23.2487C18.6614 23.2973 18.6461 23.3412 18.6377 23.3772C18.6343 23.396 18.6326 23.4133 18.6309 23.4274C18.6309 23.443 18.6309 23.4556 18.6343 23.4713C18.6394 23.501 18.6546 23.5324 18.675 23.5653L18.6784 23.5684Z" fill="white"/>
<path d="M19.2245 24.5307C19.3037 24.5871 19.3862 24.6451 19.4721 24.7031C19.4469 24.6811 19.4233 24.6592 19.3997 24.6388C19.3391 24.5871 19.2885 24.5354 19.2431 24.4915C19.2212 24.4696 19.1993 24.4492 19.1807 24.4304C19.1622 24.41 19.1454 24.3928 19.1302 24.3771C19.1235 24.3708 19.1201 24.3661 19.115 24.3599C18.9971 24.2925 18.8742 24.2141 18.7512 24.1264L18.6855 24.0778C18.6636 24.0605 18.6417 24.0449 18.6198 24.0276C18.6131 24.0229 18.6063 24.0167 18.5996 24.012C18.6131 24.0386 18.6282 24.0652 18.6451 24.0919C18.8169 24.2251 19.0089 24.3755 19.2245 24.5322V24.5307Z" fill="white"/>
<path d="M28.2107 24.9346C28.2107 24.9346 28.2241 24.9268 28.2326 24.9221C28.3286 24.8312 28.4195 24.7481 28.4987 24.6745C28.524 24.6415 28.5509 24.6102 28.5745 24.5789C28.5678 24.5851 28.5593 24.5914 28.5543 24.5961C28.5408 24.6071 28.529 24.618 28.5155 24.6259L28.5021 24.6353C28.4195 24.723 28.3319 24.8124 28.2359 24.8985C28.2292 24.9095 28.2225 24.9189 28.214 24.9299L28.209 24.9362H28.2107V24.9346Z" fill="white"/>
<path d="M18.1903 24.3628C18.1903 24.3628 18.1835 24.3503 18.1785 24.344V24.3503C18.1768 24.4145 18.1785 24.4772 18.1785 24.5415C18.2307 24.565 18.2947 24.5947 18.3688 24.6339C18.2998 24.5336 18.2391 24.4412 18.1903 24.3628Z" fill="white"/>
<path d="M19.3397 22.9513C19.3254 22.9378 19.3131 22.9224 19.3008 22.907C19.311 22.9224 19.3192 22.9359 19.3295 22.9513H19.3397Z" fill="white"/>
<path d="M18.6239 24.5101C18.7334 24.6684 18.8361 24.8126 18.922 24.9285C19.0079 24.9724 19.0972 25.0194 19.1932 25.0664C19.3196 25.1291 19.4526 25.1934 19.5924 25.2576C19.4863 25.1667 19.4173 25.0978 19.424 25.0915C19.4324 25.0837 19.5705 25.1902 19.7407 25.3234C19.8047 25.3517 19.8704 25.3799 19.9361 25.4081C20.1955 25.5178 20.4481 25.6134 20.6806 25.6964C20.6755 25.6933 20.6738 25.6902 20.6738 25.6902C20.6772 25.6839 20.7429 25.7137 20.849 25.756C20.8574 25.7591 20.8659 25.7622 20.876 25.7654C20.9332 25.7842 20.9888 25.803 21.0411 25.8218C21.1286 25.8484 21.2095 25.8766 21.287 25.9017H21.2903C21.6407 25.9957 21.9372 26.0067 21.9372 26.0192C21.9372 26.0239 21.8631 26.0271 21.7418 26.0192C21.7047 26.0161 21.6643 26.0114 21.6205 26.0067C21.6474 26.0145 21.6744 26.0208 21.698 26.0255L21.7569 26.0318C21.7822 26.0349 21.8075 26.0365 21.8344 26.038C21.8866 26.0427 21.9422 26.0475 21.9995 26.0522C22.0736 26.0569 22.1511 26.0631 22.2319 26.0678C22.0298 26.0333 21.8462 25.9926 21.6896 25.9519C21.5851 25.9268 21.4925 25.897 21.4133 25.8657C21.3746 25.85 21.3375 25.8328 21.3055 25.8171C21.2786 25.803 21.255 25.7889 21.2348 25.7748C21.164 25.7638 21.0916 25.7513 21.0141 25.7325C20.9619 25.7184 20.9063 25.7058 20.8507 25.6902C20.7951 25.6745 20.7379 25.6557 20.6789 25.6384C20.5307 25.5914 20.3757 25.5303 20.219 25.4598C20.155 25.4535 20.0843 25.4394 20.0068 25.4112C19.8687 25.3626 19.7171 25.278 19.5638 25.1683C19.4105 25.0586 19.2505 24.927 19.1023 24.7718C19.0063 24.6715 18.922 24.5697 18.8462 24.4678L18.8412 24.4631C18.8159 24.4333 18.7923 24.4051 18.7688 24.3785C18.7536 24.3675 18.7367 24.355 18.7182 24.3409C18.7014 24.3283 18.6828 24.3111 18.666 24.2939C18.7132 24.3565 18.7637 24.4255 18.8176 24.4992C18.922 24.6449 19.0164 24.7765 19.0821 24.8737C19.1478 24.9709 19.1865 25.032 19.1814 25.0351C19.1764 25.0382 19.1292 24.9818 19.0568 24.8894C19.0164 24.8361 18.9658 24.7703 18.9119 24.6966C18.8934 24.6856 18.8344 24.6355 18.7603 24.5524C18.7502 24.5399 18.7384 24.5274 18.7266 24.5133C18.7149 24.4992 18.7031 24.4835 18.6913 24.4694C18.666 24.4396 18.6441 24.4036 18.6188 24.3675C18.5717 24.2939 18.5245 24.2108 18.4841 24.1183C18.4757 24.0964 18.4689 24.076 18.4605 24.0557C18.4403 24.0228 18.4268 24.0008 18.4234 23.9914C18.3847 23.9538 18.3476 23.9162 18.3156 23.8786C18.282 23.8378 18.2533 23.7971 18.2297 23.7563C18.223 23.8002 18.2179 23.8441 18.2129 23.888C18.2348 23.9209 18.2601 23.9616 18.2904 24.0087C18.3746 24.1387 18.4908 24.3174 18.6256 24.5117L18.6239 24.5101Z" fill="white"/>
<path d="M18.4456 24.6747C18.4944 24.6997 18.5449 24.7264 18.5988 24.7562L18.6629 24.7906C18.6847 24.8032 18.7083 24.8141 18.7302 24.8267C18.769 24.8471 18.8077 24.8674 18.8481 24.8894C18.769 24.7859 18.678 24.6653 18.5854 24.5305C18.4506 24.3346 18.3378 24.1528 18.2603 24.0196C18.2384 23.982 18.2198 23.9507 18.2047 23.9209C18.1912 24.0447 18.1811 24.1685 18.1777 24.2954L18.2131 24.3472C18.2754 24.438 18.3546 24.5509 18.4439 24.6747H18.4456Z" fill="white"/>
<path d="M18.395 23.8752C18.3831 23.8438 18.3746 23.8141 18.3679 23.7843C18.3628 23.7765 18.356 23.7718 18.3509 23.7639C18.3135 23.7106 18.2778 23.6495 18.2558 23.5806C18.2507 23.6088 18.2473 23.637 18.2422 23.6668C18.2694 23.7247 18.3101 23.7843 18.3628 23.8423C18.3729 23.8532 18.3848 23.8658 18.395 23.8767V23.8752Z" fill="white"/>
<path d="M19.4634 22.6953C19.4634 22.6953 19.4802 22.7094 19.487 22.7172C19.5206 22.7454 19.5594 22.7736 19.6032 22.7971C19.6099 22.8003 19.6167 22.8034 19.6234 22.8065C19.6234 22.8034 19.6234 22.8003 19.6234 22.7987C19.6268 22.7799 19.6318 22.7705 19.6386 22.7689C19.6453 22.7689 19.6554 22.7752 19.6655 22.7893C19.6706 22.7971 19.6773 22.8065 19.684 22.8159C19.6874 22.8222 19.6908 22.8285 19.6958 22.8363C19.7615 22.8598 19.8323 22.8755 19.9064 22.8771C19.8643 22.8394 19.8255 22.8018 19.7902 22.7627C19.7851 22.7595 19.7801 22.758 19.7767 22.7548C19.7666 22.7486 19.7565 22.7423 19.7447 22.7344C19.7228 22.7203 19.7026 22.7047 19.6807 22.689C19.6638 22.6749 19.6487 22.6592 19.6318 22.6436C19.6082 22.6436 19.583 22.6436 19.5594 22.6436C19.519 22.6467 19.4785 22.6498 19.4381 22.6561H19.4297C19.4297 22.6561 19.4364 22.6655 19.4415 22.6702L19.4634 22.6937V22.6953Z" fill="white"/>
<path d="M27.5044 21.3193C27.3966 21.2174 27.2804 21.114 27.1557 21.0168C27.0934 20.9682 27.0277 20.9212 26.9586 20.8758C26.8896 20.8303 26.8171 20.788 26.7413 20.7457C26.6655 20.7034 26.5847 20.6626 26.5038 20.6203C26.4634 20.6 26.4196 20.5796 26.3775 20.5592C26.3354 20.5388 26.2933 20.5185 26.2495 20.4981C26.1619 20.4589 26.076 20.4182 25.985 20.3806C25.9396 20.3618 25.8958 20.3414 25.8486 20.3226L25.7088 20.2677C25.3332 20.1236 24.9306 19.9951 24.5027 19.9057C24.4488 19.8932 24.3949 19.8838 24.341 19.8744C24.2871 19.865 24.2332 19.854 24.1776 19.8462C24.1221 19.8383 24.0682 19.8289 24.0126 19.8211C23.957 19.8148 23.9014 19.8086 23.8458 19.8023C23.6218 19.7788 23.3944 19.7678 23.1636 19.7678C23.0356 19.7694 22.9076 19.7772 22.7812 19.7882C22.8217 19.7913 22.8638 19.7945 22.9059 19.7992C22.9901 19.807 23.0794 19.818 23.1737 19.8289C23.3624 19.854 23.5679 19.8869 23.7818 19.9292C24.432 20.0562 24.9727 20.227 25.1849 20.3492L25.2658 20.3947C25.6465 20.4856 25.98 20.6047 26.2579 20.7253C26.3101 20.7488 26.3607 20.7708 26.4078 20.7943C26.6319 20.8585 26.8087 20.9337 26.9334 21.0011C26.9536 21.0121 26.9721 21.0231 26.9906 21.0325L27.0159 21.0466L27.0395 21.0622C27.0681 21.0826 27.0934 21.0999 27.1119 21.1155C27.149 21.1469 27.1658 21.1688 27.1591 21.1813C27.1524 21.1923 27.1288 21.1955 27.09 21.1908C27.2113 21.2816 27.2669 21.3428 27.2534 21.3631C27.2484 21.3694 27.2383 21.371 27.2214 21.3694C27.2332 21.3772 27.245 21.3835 27.2568 21.3913C27.4084 21.4885 27.5415 21.5888 27.6526 21.686C27.7486 21.7706 27.8261 21.8536 27.8918 21.932C27.9221 21.9492 27.9491 21.968 27.976 21.9837C28.1984 22.1263 28.3213 22.2407 28.2944 22.2909C28.2843 22.3097 28.2523 22.3175 28.2034 22.3159C28.2388 22.3457 28.2708 22.3755 28.2994 22.4068C28.3601 22.4726 28.4089 22.5385 28.451 22.6011C28.4729 22.6325 28.4932 22.6623 28.5134 22.6936C28.5336 22.7249 28.5555 22.7594 28.5757 22.797C28.5959 22.8346 28.6144 22.8738 28.6296 22.9177C28.6346 22.9334 28.6397 22.9506 28.6431 22.9678C28.6532 22.8973 28.6549 22.8268 28.6431 22.7563C28.6431 22.7422 28.638 22.7296 28.6346 22.7171L28.6245 22.6779C28.6161 22.6513 28.6077 22.6246 28.5959 22.598C28.5723 22.5447 28.542 22.4883 28.5049 22.4288C28.4696 22.3708 28.4275 22.3065 28.3887 22.2438C28.3668 22.2078 28.3432 22.1718 28.3213 22.1357C28.2489 22.0589 28.1697 21.9774 28.0822 21.8897C27.9962 21.8051 27.9053 21.7142 27.8093 21.6186C27.7116 21.523 27.6105 21.4211 27.5027 21.3193H27.5044Z" fill="white"/>
<path d="M29.2505 23.7797C29.2505 23.7797 29.2488 23.7891 29.2471 23.7922C29.264 23.7499 29.2741 23.7248 29.2791 23.7248C29.2842 23.7248 29.2707 23.8016 29.2286 23.9176L29.2118 23.963C29.205 23.9787 29.1983 23.9944 29.1916 24.0116C29.1781 24.0461 29.1595 24.0806 29.141 24.1166C29.1023 24.1887 29.0551 24.2671 28.9995 24.3454C28.9709 24.3846 28.9406 24.4238 28.9103 24.4583C28.9086 24.463 28.9069 24.4677 28.9052 24.4739C28.8917 24.5068 28.8715 24.5444 28.8395 24.5852C28.8142 24.6181 28.7806 24.6526 28.7435 24.687C28.7435 24.7168 28.7368 24.7544 28.7199 24.7952C28.6963 24.8532 28.6542 24.9158 28.5969 24.9785C28.5683 25.0099 28.5363 25.0396 28.5043 25.0694C28.4841 25.0867 28.4622 25.1055 28.442 25.1243C28.4302 25.1415 28.3965 25.1854 28.3409 25.2418C28.2702 25.3155 28.1657 25.4142 28.0411 25.5098C27.9164 25.6069 27.7935 25.6837 27.7025 25.7339C27.6116 25.784 27.5509 25.8107 27.5475 25.806C27.5408 25.795 27.7665 25.6712 28.0141 25.4784C28.1152 25.4016 28.2028 25.3249 28.2735 25.2637C28.2331 25.2951 28.191 25.3264 28.1472 25.3593C28.1 25.3938 28.0512 25.4267 27.999 25.4628C27.9737 25.48 27.9484 25.4988 27.9215 25.516C27.8945 25.5333 27.8676 25.5505 27.839 25.5678C27.6166 25.7072 27.3606 25.8467 27.081 25.9721C26.8013 26.0959 26.5251 26.1946 26.2674 26.2683C26.1394 26.3059 26.0164 26.3341 25.9002 26.3607C25.8412 26.3733 25.7856 26.3842 25.7317 26.3936C25.7048 26.3983 25.6778 26.4046 25.6526 26.4077L25.5751 26.4187C25.5245 26.4265 25.4774 26.4328 25.4319 26.4375C25.3864 26.4422 25.3443 26.4453 25.3039 26.4485C25.2635 26.4516 25.2264 26.4532 25.191 26.4547C25.1573 26.4547 25.1253 26.4547 25.0967 26.4547C24.9822 26.45 24.9165 26.4344 24.9114 26.4077C24.9013 26.3513 25.1338 26.2698 25.4993 26.1445L25.57 26.1209C25.5936 26.1131 25.6189 26.1037 25.6425 26.0959C25.6627 26.0896 25.6829 26.0818 25.7048 26.0739C25.7014 26.0724 25.6964 26.0708 25.693 26.0692C25.6222 26.0818 25.5515 26.0927 25.4824 26.1021L25.3376 26.1178L25.3022 26.1209C25.2904 26.1209 25.2786 26.1209 25.2685 26.1225L25.2011 26.1256C25.2011 26.1256 25.1893 26.1256 25.1826 26.1256C25.1388 26.157 25.0849 26.1852 25.0243 26.2103C24.9838 26.2259 24.9417 26.2416 24.8979 26.2557C24.8541 26.2683 24.8087 26.2824 24.7598 26.2965C24.6638 26.3247 24.556 26.3482 24.4398 26.3748C24.3808 26.3874 24.3219 26.3968 24.2579 26.4093C24.2258 26.414 24.1955 26.4203 24.1635 26.425C24.1315 26.4297 24.0978 26.4344 24.0658 26.4391C23.8014 26.4767 23.5049 26.4986 23.195 26.4986C22.885 26.4986 22.5903 26.4751 22.3241 26.4391C22.1911 26.4218 22.0664 26.3983 21.9502 26.3764C21.8929 26.3638 21.8356 26.3513 21.7834 26.3388C21.7565 26.3325 21.7312 26.3262 21.7043 26.32C21.679 26.3121 21.6537 26.3059 21.6301 26.2996C21.5813 26.2855 21.5358 26.273 21.492 26.2589C21.4482 26.2447 21.4078 26.2306 21.3707 26.2165C21.3522 26.2103 21.3354 26.2024 21.3185 26.1962C21.3034 26.1946 21.2916 26.193 21.2764 26.1915C21.2073 26.1836 21.1349 26.1711 21.0574 26.1586C21.0726 26.1633 21.0861 26.1695 21.1012 26.1742C21.2259 26.2165 21.3472 26.2542 21.4583 26.2871C21.5695 26.3184 21.6689 26.3466 21.7531 26.367C21.9215 26.4093 22.0277 26.4344 22.026 26.4391C22.026 26.4422 21.999 26.4391 21.9502 26.4312C21.9266 26.4281 21.8963 26.4234 21.8626 26.4156C21.8289 26.4093 21.7885 26.4015 21.7464 26.3921C21.6605 26.3748 21.5594 26.3497 21.4465 26.32C21.3354 26.2886 21.2124 26.2526 21.0861 26.2103C20.9884 26.1774 20.8974 26.1429 20.8115 26.1084C20.7963 26.1053 20.7829 26.1021 20.7694 26.099C20.7391 26.0912 20.7071 26.0849 20.6751 26.0771C20.6431 26.0692 20.6111 26.0598 20.5791 26.052C20.3213 25.983 20.0417 25.8906 19.7604 25.7715C19.597 25.7025 19.4421 25.6273 19.2955 25.5505C19.3225 25.5709 19.3477 25.5913 19.3781 25.6148C19.4185 25.6461 19.4606 25.6759 19.5078 25.7088C19.6004 25.7731 19.7031 25.8436 19.8143 25.9125C19.9255 25.9815 20.035 26.0426 20.1344 26.0959C20.1849 26.1225 20.2321 26.1476 20.2792 26.1695C20.3247 26.193 20.3668 26.2118 20.4072 26.2306C20.5639 26.3043 20.6633 26.345 20.6616 26.3497C20.6616 26.3529 20.6346 26.345 20.5875 26.3294C20.5639 26.3215 20.5353 26.3121 20.5033 26.2996C20.4712 26.2871 20.4342 26.273 20.3938 26.2557C20.3533 26.2385 20.3095 26.2197 20.2641 26.1993C20.2169 26.1789 20.1681 26.1539 20.1175 26.1288C20.0148 26.0771 19.9053 26.0159 19.7924 25.947C19.6796 25.878 19.5768 25.8075 19.4859 25.7401C19.4404 25.7057 19.3966 25.6743 19.3578 25.6414C19.3191 25.6101 19.282 25.5803 19.25 25.5521C19.2231 25.5302 19.1995 25.5082 19.1776 25.4878C19.117 25.4549 19.0597 25.4205 19.0024 25.386C19.0378 25.4299 19.0732 25.469 19.1052 25.5035C19.1692 25.5709 19.2281 25.6179 19.2736 25.6461C19.3191 25.6743 19.346 25.6853 19.346 25.6884C19.346 25.69 19.3157 25.6837 19.2652 25.6602C19.2163 25.6367 19.1507 25.5913 19.0833 25.5239C19.0277 25.469 18.9687 25.4001 18.9047 25.3264C18.8272 25.2778 18.7531 25.2293 18.6841 25.1823C18.6588 25.1634 18.6352 25.1462 18.61 25.1274C18.647 25.1713 18.6824 25.2152 18.7211 25.259C18.8306 25.3828 18.9384 25.4972 19.0412 25.6007C19.0917 25.6508 19.1405 25.6994 19.1877 25.7433C19.2113 25.7652 19.2332 25.7872 19.2551 25.8075C19.277 25.8279 19.2989 25.8467 19.3191 25.8655C19.3595 25.9031 19.3966 25.9345 19.4286 25.9642C19.4606 25.994 19.4892 26.0175 19.5128 26.0379C19.5583 26.0786 19.5836 26.1021 19.5819 26.1037C19.5802 26.1053 19.5515 26.0865 19.5027 26.0489C19.4774 26.0301 19.4471 26.0081 19.4134 25.9799C19.3797 25.9517 19.3393 25.9219 19.2989 25.8859L19.2332 25.8295C19.2096 25.8091 19.1877 25.7887 19.1641 25.7668C19.1153 25.7245 19.0664 25.6759 19.0142 25.6257C18.9115 25.5239 18.8003 25.4095 18.6908 25.2841C18.6133 25.1964 18.5443 25.1102 18.4803 25.0271L18.4297 24.9864C18.391 24.955 18.3556 24.9252 18.3219 24.897C18.2882 24.8673 18.2579 24.8391 18.231 24.8124C18.2192 24.7999 18.2091 24.7905 18.1973 24.7795C18.2495 25.5646 18.4904 26.3043 18.8778 26.9609C18.9468 27.0267 19.0412 27.1098 19.154 27.1928C19.3966 27.3731 19.629 27.4718 19.6223 27.4843C19.6206 27.489 19.56 27.4702 19.4673 27.4279C19.4202 27.406 19.3679 27.3793 19.309 27.3449C19.2517 27.3104 19.1894 27.2712 19.1271 27.2258C19.0647 27.1803 19.0092 27.1333 18.9603 27.0894C18.9536 27.0831 18.9485 27.0784 18.9418 27.0722C19.0462 27.2383 19.1608 27.3981 19.2837 27.5533C19.3006 27.5658 19.3174 27.5784 19.3343 27.5909C19.5347 27.7351 19.7166 27.8291 19.7116 27.8385C19.7082 27.8463 19.5549 27.7852 19.3781 27.6692C19.6459 27.9858 19.9524 28.2741 20.2927 28.5264C20.5252 28.6424 20.825 28.7897 21.1636 28.9292C21.3556 29.0075 21.5409 29.0734 21.7127 29.1266C21.7986 29.1517 21.8811 29.1768 21.9586 29.1956C21.9973 29.205 22.0344 29.216 22.0715 29.2238C22.1085 29.2316 22.1422 29.2395 22.1759 29.2457C22.2433 29.2614 22.3039 29.2693 22.3578 29.2802C22.3848 29.2849 22.41 29.2896 22.4319 29.2928L22.4959 29.3006C22.5717 29.3116 22.6138 29.3178 22.6138 29.321C22.6138 29.3241 22.5717 29.321 22.4943 29.3163L22.4302 29.3116C22.4067 29.3084 22.3814 29.3053 22.3544 29.3022C22.3005 29.2943 22.2382 29.2881 22.1708 29.274L22.0647 29.2536C22.0277 29.2457 21.9906 29.2363 21.9502 29.2269C21.871 29.2097 21.7885 29.1862 21.7009 29.1611C21.5274 29.1094 21.3387 29.0436 21.1467 28.9652C20.8974 28.8634 20.67 28.7552 20.4763 28.6565C20.9799 28.9997 21.5459 29.2677 22.1574 29.4401C22.2332 29.4542 22.4639 29.5169 22.7419 29.556C23.0821 29.6062 23.3634 29.603 23.3634 29.6156C23.3634 29.6203 23.2927 29.6281 23.1798 29.6281C23.1579 29.6281 23.1343 29.6281 23.1108 29.6281C23.2944 29.6485 23.4796 29.661 23.6683 29.6642C24.935 29.6877 26.1124 29.3147 27.0658 28.6691C26.9765 28.7051 26.8856 28.7396 26.7862 28.774C26.4965 28.8728 26.2253 28.9402 26.0282 28.9793C25.9288 28.9997 25.8496 29.0122 25.7924 29.0201C25.7368 29.0279 25.7048 29.0311 25.7048 29.0279C25.7048 29.0217 25.8261 28.9981 26.0215 28.9527C26.2168 28.9073 26.483 28.8352 26.771 28.7364C26.9142 28.6863 27.0506 28.6361 27.1719 28.586C27.182 28.5813 27.1921 28.5782 27.2022 28.5735C27.5408 28.329 27.8491 28.0485 28.1203 27.7382C28.1152 27.7445 28.1085 27.7492 28.1034 27.7554C27.9855 27.8761 27.8743 27.9811 27.7918 28.0563C27.7093 28.13 27.6553 28.1738 27.6503 28.1707C27.6452 28.166 27.6924 28.1159 27.7699 28.0375C27.8474 27.9592 27.9535 27.8495 28.0731 27.7304C28.191 27.6097 28.2988 27.5016 28.3763 27.4232L28.3881 27.4122C28.5532 27.1897 28.6997 26.9562 28.826 26.7102C28.7738 26.765 28.7149 26.8246 28.6492 26.8826C28.5801 26.9437 28.5094 27.0001 28.4453 27.0471C28.3797 27.0941 28.319 27.1364 28.2668 27.1678C28.1624 27.232 28.0916 27.2649 28.0899 27.2602C28.0866 27.2555 28.1506 27.2148 28.25 27.1443C28.3005 27.1098 28.3578 27.0675 28.4218 27.0173C28.4841 26.9687 28.5532 26.9123 28.6222 26.8512C28.6913 26.7901 28.7536 26.729 28.8092 26.6741C28.8378 26.6444 28.8648 26.6162 28.89 26.5895C29.072 26.2134 29.2067 25.8138 29.2876 25.3969C29.2556 25.4534 29.2168 25.5145 29.168 25.5787C29.104 25.6634 29.0282 25.7511 28.9456 25.8389C28.7789 26.0175 28.6138 26.1664 28.4891 26.2683C28.3645 26.3701 28.282 26.4281 28.2786 26.4234C28.2752 26.4187 28.3493 26.3544 28.4689 26.2479C28.5868 26.1413 28.7485 25.9893 28.9136 25.8122C28.9962 25.7245 29.0736 25.6383 29.1376 25.5568C29.2017 25.4753 29.2539 25.3985 29.2926 25.3311C29.2977 25.3233 29.301 25.3155 29.3061 25.3076C29.333 25.1509 29.3549 24.9911 29.3667 24.8312C29.3617 24.8657 29.3499 24.9252 29.3213 24.9989C29.2994 25.06 29.2657 25.1305 29.2219 25.2058C29.1781 25.281 29.1208 25.3593 29.0551 25.4361C28.9237 25.5913 28.7822 25.7119 28.6812 25.7981C28.5784 25.8827 28.511 25.9329 28.5077 25.9282C28.5043 25.9235 28.5633 25.8671 28.661 25.7778C28.7587 25.6869 28.8934 25.5631 29.0231 25.4126C29.1528 25.2606 29.2438 25.107 29.2943 24.9895C29.3465 24.872 29.3617 24.7936 29.3684 24.7952C29.3735 24.7215 29.3768 24.6479 29.3785 24.5727C29.3448 24.64 29.296 24.7247 29.2337 24.8124C29.0955 25.0099 28.9473 25.1431 28.9389 25.1368C28.9288 25.129 29.0618 24.9848 29.1983 24.7905C29.2758 24.6792 29.3381 24.5789 29.3802 24.5115C29.3802 24.4489 29.3802 24.3862 29.3802 24.325C29.3634 24.3564 29.3465 24.3893 29.3263 24.4238C29.2842 24.4959 29.2353 24.5742 29.1814 24.6541C29.1259 24.7341 29.0703 24.8061 29.0164 24.872C28.9625 24.9362 28.9119 24.9926 28.8665 25.0396C28.7772 25.1321 28.7149 25.1823 28.7115 25.1791C28.7064 25.1744 28.7603 25.1164 28.8429 25.0208C28.885 24.9723 28.9322 24.9143 28.9844 24.85C29.0366 24.7842 29.0905 24.7106 29.1461 24.6322C29.2 24.5538 29.2488 24.4771 29.2926 24.4065C29.3246 24.3533 29.3533 24.3031 29.3785 24.2592C29.3752 24.195 29.3718 24.1307 29.3667 24.0665C29.365 24.0727 29.3634 24.0774 29.3617 24.0837C29.3516 24.1151 29.3398 24.148 29.3263 24.1824C29.2994 24.2514 29.264 24.325 29.2219 24.4003C29.1781 24.4755 29.1326 24.5429 29.0871 24.6024C29.0635 24.6322 29.0416 24.6604 29.0181 24.6839C28.9962 24.709 28.9743 24.7325 28.954 24.7529C28.8732 24.8344 28.8142 24.8767 28.8109 24.872C28.8058 24.8673 28.8563 24.8187 28.9305 24.7341C28.949 24.7121 28.9692 24.6902 28.9894 24.6635C29.0113 24.6385 29.0315 24.6103 29.0534 24.5805C29.0972 24.5209 29.141 24.4536 29.1831 24.3815C29.2252 24.3078 29.2606 24.2357 29.2892 24.1699C29.3027 24.137 29.3162 24.1041 29.328 24.0743C29.3398 24.0445 29.3499 24.0163 29.3583 23.9897V23.985C29.3448 23.8424 29.3246 23.6998 29.2994 23.5603L29.296 23.5681C29.296 23.5681 29.296 23.5791 29.296 23.5838C29.2943 23.6105 29.2926 23.6418 29.2859 23.6763L29.2775 23.7295C29.2741 23.7484 29.269 23.7672 29.2657 23.7875L29.2505 23.7797ZM21.7565 28.912L21.7043 28.901C21.6857 28.8963 21.6655 28.8916 21.6436 28.8853C21.5998 28.8743 21.551 28.8618 21.4971 28.8446L21.4128 28.8195C21.3825 28.8101 21.3539 28.7991 21.3219 28.7897C21.2579 28.7693 21.1922 28.7443 21.1231 28.7176C20.985 28.6644 20.8334 28.5985 20.6801 28.5233C20.5268 28.4465 20.387 28.3666 20.2607 28.2882C20.1984 28.2491 20.1394 28.2115 20.0872 28.1738C20.0602 28.155 20.035 28.1378 20.0097 28.1206L19.9407 28.0689C19.8952 28.0359 19.8581 28.0046 19.8227 27.978C19.8059 27.9639 19.7891 27.9513 19.7756 27.9388L19.7368 27.9059C19.6914 27.8651 19.6661 27.8416 19.6678 27.8401C19.6695 27.8385 19.6981 27.8573 19.7469 27.8949L19.7874 27.9262L19.8362 27.9623C19.8716 27.9874 19.912 28.0187 19.9575 28.0485C19.9794 28.0642 20.0047 28.0814 20.0282 28.0971C20.0535 28.1143 20.0788 28.1315 20.1057 28.1488C20.1596 28.1848 20.2186 28.2209 20.2809 28.26C20.4056 28.3353 20.547 28.4152 20.6986 28.4904C20.8502 28.5656 20.9985 28.6314 21.1366 28.6863C21.2057 28.7129 21.2714 28.7396 21.3337 28.7599C21.364 28.7709 21.3943 28.7819 21.423 28.7913L21.5072 28.8195C21.5594 28.8383 21.6082 28.8524 21.652 28.8649L21.711 28.8837C21.7295 28.8884 21.7464 28.8947 21.7615 28.8978C21.8222 28.9151 21.8542 28.9276 21.8542 28.9292C21.8542 28.9323 21.8188 28.9261 21.7565 28.912V28.912ZM21.4886 26.5676C21.3926 26.53 21.3337 26.5033 21.337 26.4986C21.3421 26.4876 21.583 26.5707 21.8879 26.6585C22.1911 26.7462 22.442 26.8042 22.4387 26.8152C22.4387 26.8199 22.373 26.812 22.2702 26.7932C22.1675 26.7729 22.0277 26.7415 21.8744 26.6976C21.7211 26.6538 21.5863 26.6067 21.4886 26.5691V26.5676ZM22.1523 27.2414C21.9957 27.1913 21.871 27.1411 21.8744 27.1302C21.8777 27.1192 22.0091 27.1521 22.1658 27.2022C22.3224 27.2524 22.4471 27.3025 22.4437 27.3135C22.4403 27.3245 22.309 27.2916 22.1523 27.2414ZM24.7211 26.682C24.9198 26.6663 25.0832 26.6632 25.0832 26.6757C25.0832 26.6867 24.9232 26.707 24.7244 26.7227C24.5257 26.7384 24.3623 26.7415 24.3623 26.729C24.3623 26.718 24.5223 26.6976 24.7211 26.682ZM24.017 28.1127C24.017 28.1237 23.921 28.1237 23.8047 28.1253C23.6885 28.1253 23.5942 28.1284 23.5925 28.1174C23.5925 28.1065 23.6851 28.0861 23.8047 28.0845C23.9243 28.083 24.0187 28.1018 24.0187 28.1112L24.017 28.1127ZM22.7739 26.5989C22.7756 26.5879 23.0265 26.6193 23.3365 26.6412C23.6464 26.6647 23.8991 26.671 23.8991 26.682C23.8991 26.6867 23.8351 26.6929 23.7323 26.6945L23.3314 26.682C23.1748 26.671 23.035 26.6522 22.9339 26.6365C22.8328 26.6193 22.7705 26.6052 22.7722 26.6005L22.7739 26.5989ZM23.4527 28.655C23.675 28.6832 23.857 28.702 23.857 28.7129C23.857 28.7239 23.6717 28.7239 23.446 28.6941C23.2202 28.6659 23.0434 28.6189 23.0451 28.6079C23.0484 28.597 23.2287 28.6252 23.451 28.655H23.4527ZM23.6312 29.4698C23.3786 29.4777 23.1748 29.4448 23.1764 29.4338C23.1764 29.4228 23.3803 29.4369 23.6296 29.4291C23.8789 29.4228 24.081 29.3978 24.0827 29.4087C24.0844 29.4181 23.8839 29.462 23.6312 29.4698V29.4698ZM25.9204 29.1517C26.0282 29.1266 26.1158 29.1063 26.1764 29.0937C26.2371 29.0796 26.2707 29.0734 26.2724 29.0765C26.2724 29.0796 26.2404 29.0906 26.1815 29.1094C26.1225 29.1282 26.0349 29.1517 25.9288 29.1799C25.7132 29.2363 25.4134 29.3069 25.0799 29.3711C24.7463 29.4354 24.4398 29.4792 24.2191 29.5059C24.1079 29.5184 24.0187 29.5278 23.9563 29.5325C23.894 29.5372 23.8586 29.5388 23.8586 29.5357C23.8586 29.5325 23.8923 29.5263 23.953 29.5169L24.2141 29.4777C24.4347 29.4448 24.7379 29.3946 25.0714 29.3319C25.4049 29.2677 25.7048 29.2019 25.9204 29.1517V29.1517ZM25.7806 26.4735C25.6374 26.5033 25.501 26.5268 25.3763 26.5456C25.2517 26.5644 25.1388 26.5801 25.0428 26.5895C24.9468 26.6005 24.871 26.6067 24.8171 26.6099C24.7632 26.613 24.7345 26.613 24.7329 26.6099C24.7329 26.6036 24.8491 26.5895 25.0377 26.5613C25.1321 26.5472 25.2449 26.53 25.3679 26.5096C25.4925 26.4876 25.6273 26.4626 25.7705 26.4344C25.912 26.4046 26.0467 26.3748 26.1697 26.345C26.2926 26.3153 26.4021 26.2871 26.4931 26.2636C26.6767 26.215 26.7896 26.1821 26.7929 26.1883C26.7929 26.1915 26.766 26.2024 26.7171 26.2197C26.6666 26.2385 26.5942 26.262 26.5032 26.2902C26.4122 26.3184 26.3028 26.3497 26.1815 26.3811C26.0585 26.4124 25.9238 26.4438 25.7806 26.4735V26.4735ZM27.9181 27.6959L27.8912 27.7257C27.8811 27.7366 27.8693 27.7476 27.8558 27.7601C27.8305 27.7836 27.8019 27.8118 27.7682 27.8401L27.716 27.8855C27.6975 27.9012 27.6772 27.9168 27.657 27.9325C27.6166 27.9654 27.5711 27.9968 27.524 28.0312C27.4263 28.0971 27.3168 28.1644 27.1938 28.2271C27.0709 28.2882 26.9513 28.3384 26.8384 28.3791C26.7811 28.3979 26.7289 28.4168 26.6767 28.4309C26.6514 28.4387 26.6262 28.445 26.6026 28.4512L26.5335 28.4685C26.4897 28.4794 26.4493 28.4857 26.4139 28.4935C26.3954 28.4967 26.3802 28.4998 26.3651 28.5029L26.323 28.5092C26.2724 28.5155 26.2455 28.5186 26.2438 28.5155C26.2438 28.5123 26.2707 28.5061 26.3196 28.4935L26.36 28.4841L26.4089 28.4716C26.4426 28.4622 26.483 28.4544 26.5251 28.4418L26.5925 28.423C26.6161 28.4167 26.6396 28.4073 26.6649 28.4011C26.7154 28.3854 26.7677 28.3666 26.8232 28.3462C26.9327 28.3039 27.0523 28.2538 27.1719 28.1927C27.2915 28.1315 27.401 28.0657 27.4987 28.0015C27.5459 27.9686 27.593 27.9388 27.6335 27.9074C27.6537 27.8918 27.6739 27.8777 27.6924 27.8636L27.7463 27.8213C27.7817 27.7946 27.8103 27.768 27.8373 27.746C27.8507 27.7351 27.8625 27.7241 27.8743 27.7147C27.8861 27.7053 27.8962 27.6959 27.9046 27.688C27.9417 27.6551 27.9619 27.6379 27.9653 27.641C27.967 27.6426 27.9501 27.663 27.9181 27.699V27.6959Z" fill="white"/>
<path d="M20.6792 20.5313C20.7735 20.4828 20.8662 20.4373 20.9538 20.395C20.9773 20.3793 21.0009 20.3652 21.0245 20.3495C21.0818 20.3135 21.1458 20.279 21.2132 20.243C21.3479 20.1725 21.5029 20.1035 21.6696 20.0424C21.8364 19.9813 21.9998 19.9358 22.1514 19.9014C22.1615 19.8998 22.1716 19.8967 22.1834 19.8951C22.1851 19.8873 22.1901 19.8794 22.1985 19.8716L22.1598 19.8794C22.1059 19.8888 22.0537 19.9045 21.9998 19.9155L21.9206 19.9343C21.8937 19.9405 21.8684 19.9484 21.8431 19.9562C21.6359 20.0126 21.4389 20.0863 21.2502 20.1678C21.203 20.1881 21.1576 20.2101 21.1104 20.2304C21.0649 20.254 21.0211 20.2759 20.9756 20.2994C20.9302 20.3213 20.8881 20.3464 20.8459 20.3715L20.7819 20.4075L20.7499 20.4263L20.7196 20.4467C20.6792 20.4733 20.6388 20.4984 20.5983 20.5251C20.5916 20.5298 20.5849 20.5345 20.5781 20.5392C20.6253 20.5219 20.6573 20.5188 20.6741 20.5329L20.6792 20.5313Z" fill="white"/>
<path d="M25.3756 19.4767L25.4969 19.5158C25.5373 19.5284 25.5777 19.5425 25.6198 19.5566C25.6603 19.5707 25.7024 19.5848 25.7428 19.6005C25.9062 19.66 26.0713 19.7274 26.2347 19.8011C26.398 19.8747 26.5631 19.9546 26.7265 20.0408C26.7619 20.0596 26.7956 20.0784 26.8309 20.0972C26.2566 19.7478 25.6097 19.4939 24.9141 19.3591C25.0269 19.3842 25.1398 19.4108 25.2543 19.4438L25.3756 19.4782V19.4767Z" fill="white"/>
<path d="M28.6758 24.4445C28.6862 24.4315 28.6984 24.4186 28.7106 24.404L28.721 24.3894C28.7053 24.4072 28.6914 24.4267 28.6758 24.4445Z" fill="white"/>
<path d="M28.7293 22.0655C28.7664 22.1313 28.8035 22.194 28.8422 22.2614C28.8793 22.3288 28.9146 22.4009 28.9433 22.4776C28.9517 22.4996 28.9567 22.5231 28.9635 22.545C28.9702 22.5497 28.977 22.556 28.9837 22.5607C28.8523 22.2504 28.6906 21.9542 28.502 21.6753C28.539 21.738 28.5778 21.8038 28.6131 21.8649C28.6519 21.9323 28.6906 21.9981 28.7277 22.0624L28.7293 22.0655Z" fill="white"/>
<path d="M22.4203 19.4263C22.4843 19.4169 22.5483 19.4091 22.6123 19.4012L22.6595 19.3871C22.6814 19.3809 22.705 19.3746 22.7286 19.3683C22.7521 19.3621 22.7757 19.3542 22.801 19.3495C22.8498 19.3386 22.9004 19.3276 22.9543 19.3151C23.0082 19.3057 23.0621 19.2963 23.1194 19.2853C23.1412 19.2821 23.1665 19.279 23.1901 19.2759C22.8246 19.3119 22.4708 19.3793 22.1289 19.478C22.166 19.4702 22.2047 19.4624 22.2418 19.4545C22.3007 19.4451 22.3614 19.4357 22.422 19.4248L22.4203 19.4263Z" fill="white"/>
<path d="M20.1732 22.023C20.19 22.0151 20.2035 22.0073 20.2203 21.9994C20.3517 21.9336 20.4932 21.8662 20.6431 21.7957C20.6903 21.7738 20.7391 21.7518 20.7863 21.7299C20.793 21.7252 20.7998 21.7221 20.8065 21.7174C20.7914 21.6923 20.7796 21.6719 20.7779 21.6562C20.5471 21.7409 20.3332 21.8161 20.1445 21.8788C20.1513 21.9117 20.1597 21.9462 20.1647 21.9775C20.1681 21.9932 20.1698 22.0073 20.1732 22.023Z" fill="white"/>
<path d="M20.5397 22.8613C20.5802 22.8942 20.6172 22.9255 20.6526 22.9553L20.6779 22.9773L20.6998 22.9976C20.7132 23.0102 20.725 23.0211 20.7368 23.0321C20.7587 23.0509 20.7772 23.0666 20.7941 23.0807C20.8514 23.0478 20.9171 23.0117 20.9895 22.9726C20.9187 22.9146 20.8547 22.8597 20.7991 22.8096C20.7756 22.7876 20.7554 22.7688 20.7351 22.75C20.6812 22.797 20.6492 22.8253 20.6307 22.8174C20.6172 22.8111 20.6155 22.7845 20.6273 22.7375C20.6324 22.7187 20.6425 22.6952 20.6543 22.6685C20.6509 22.6654 20.6459 22.6607 20.6425 22.656C20.6004 22.667 20.5583 22.6795 20.5195 22.692C20.5263 22.7187 20.533 22.7438 20.5347 22.772C20.5364 22.7986 20.5347 22.8268 20.5313 22.8566L20.5397 22.8629V22.8613Z" fill="white"/>
<path d="M19.2584 24.4379C19.2281 24.4223 19.1961 24.4035 19.1641 24.3862L19.1944 24.416C19.2146 24.4348 19.2365 24.4536 19.2601 24.4756C19.3072 24.5179 19.3595 24.568 19.4218 24.6182C19.4487 24.6417 19.4774 24.6652 19.5077 24.6902C19.4184 24.5994 19.351 24.5194 19.3005 24.4583C19.287 24.452 19.2736 24.4442 19.2601 24.4379H19.2584Z" fill="white"/>
<path d="M19.4451 24.5289C19.4114 24.5133 19.3794 24.4976 19.3457 24.4819C19.3979 24.5383 19.4619 24.6073 19.5411 24.6841C19.6068 24.7483 19.6843 24.8173 19.7702 24.8894C19.7837 24.8972 19.7971 24.9066 19.8123 24.9145C19.8847 24.9536 19.9588 24.9959 20.0346 25.0351C20.289 25.1652 20.5703 25.2827 20.8735 25.383C20.8617 25.3736 20.8482 25.3658 20.8381 25.3579L20.7994 25.3282C20.7792 25.3125 20.769 25.3031 20.769 25.3015C20.769 25.3015 20.7825 25.3078 20.8044 25.3219L20.8448 25.3485C20.86 25.3595 20.8785 25.3705 20.9004 25.383C20.9089 25.3893 20.9206 25.3956 20.9308 25.4018C20.9745 25.4159 21.0167 25.4316 21.0621 25.4441C21.3788 25.5397 21.7191 25.6149 22.0711 25.6761C22.0846 25.6714 22.0964 25.6682 22.1082 25.6651C22.093 25.662 22.0795 25.6604 22.0644 25.6573C22.0189 25.6494 21.9734 25.6416 21.9279 25.6322L21.7898 25.6055C21.7443 25.5946 21.6989 25.5852 21.6517 25.5742L21.5826 25.5585L21.5136 25.5413C21.4681 25.5288 21.4209 25.5178 21.3754 25.5053C21.2845 25.477 21.1918 25.452 21.0992 25.4206C20.9156 25.3611 20.7337 25.289 20.5551 25.2075C20.3766 25.126 20.2014 25.0351 20.0313 24.9333C19.8611 24.833 19.6944 24.7201 19.536 24.601C19.5057 24.5775 19.4754 24.554 19.4451 24.5305V24.5289Z" fill="white"/>
<path d="M20.375 22.3618C20.4409 22.357 20.5137 22.3522 20.5914 22.3474C20.5695 22.3265 20.5475 22.3056 20.5272 22.2864C20.4748 22.3137 20.424 22.3394 20.3767 22.3618H20.375Z" fill="white"/>
<path d="M21.0806 22.0247C21.0065 22.0544 20.9341 22.0826 20.8633 22.1108C20.8296 22.1281 20.7976 22.1453 20.7656 22.1626C20.8061 22.1845 20.8465 22.208 20.8903 22.2346C20.9779 22.1939 21.0705 22.1532 21.1682 22.1108C21.1362 22.0811 21.1076 22.0529 21.0789 22.0262L21.0806 22.0247Z" fill="white"/>
</svg>
