<svg width="34" height="35" viewBox="0 0 34 35" fill="none" xmlns="http://www.w3.org/2000/svg">
<path d="M20.8895 16.4739C19.7131 16.4739 18.7815 17.5551 18.7815 18.8675C18.7815 20.1799 19.7267 21.2611 20.8895 21.2611C22.0523 21.2611 22.9975 20.1799 22.9975 18.8675C23.0179 17.5483 22.0727 16.4739 20.8895 16.4739Z" fill="white"/>
<path d="M13.1104 16.4739C11.934 16.4739 11.0024 17.5551 11.0024 18.8675C11.0024 20.1799 11.9476 21.2611 13.1104 21.2611C14.2732 21.2611 15.2184 20.1799 15.2184 18.8675C15.2388 17.5483 14.2936 16.4739 13.1104 16.4739Z" fill="white"/>
<path d="M17 0.969971C7.6092 0.969971 0 8.57917 0 17.97C0 27.3608 7.6092 34.97 17 34.97C26.3908 34.97 34 27.3608 34 17.97C34 8.57917 26.3908 0.969971 17 0.969971ZM28.6076 23.9948C26.5812 25.5112 24.616 26.4292 22.678 27.0344C22.202 26.3748 21.7736 25.6812 21.4064 24.9468C22.1068 24.6816 22.7732 24.3552 23.4056 23.9744C23.2424 23.852 23.0792 23.7228 22.916 23.5868C19.108 25.3888 14.926 25.3888 11.0704 23.5868C10.914 23.7228 10.7508 23.852 10.5808 23.9744C11.2132 24.3552 11.8796 24.6816 12.58 24.9468C12.2128 25.6812 11.7912 26.3816 11.3084 27.0344C9.3772 26.4292 7.412 25.5112 5.3856 24.0016C4.9708 19.5612 5.8004 15.0528 8.8536 10.4356C10.37 9.72157 11.9884 9.20477 13.6884 8.91237C13.8992 9.28637 14.144 9.79637 14.314 10.1976C16.082 9.92557 17.8636 9.92557 19.6656 10.1976C19.8356 9.79637 20.0736 9.28637 20.2844 8.91237C21.9776 9.20477 23.596 9.72157 25.1124 10.4288C27.7644 14.3864 29.0768 18.8472 28.594 23.9948H28.6076Z" fill="#D9D9D9"/>
</svg>
