<svg width="24" height="24" viewBox="0 0 24 24" fill="none" xmlns="http://www.w3.org/2000/svg">
<path d="M22.4968 4.18875C22.2832 4.05707 22.2911 4.06225 22.3416 3.81502C22.403 3.51402 22.3965 3.2125 22.2446 2.93467C21.9395 2.37689 21.2297 2.19017 20.6956 2.54111C20.242 2.83919 19.7682 3.08353 19.2321 3.18344C19.0636 3.21484 18.8959 3.29705 18.7157 3.14956C17.9121 2.49168 16.9814 2.12203 15.9514 2.02599C14.8228 1.92076 13.7482 2.13135 12.7765 2.72554C11.1473 3.72177 10.2693 5.18266 10.1614 7.09533C10.1559 7.19223 10.1237 7.21459 10.0383 7.19946C9.83922 7.16418 9.63761 7.14022 9.44082 7.09503C8.6913 6.92294 7.97718 6.65297 7.29257 6.30321C6.32045 5.80656 5.43848 5.17857 4.61424 4.46674C4.18633 4.09718 3.7786 3.70637 3.40013 3.28586C3.23344 3.10067 3.04216 2.94881 2.79636 2.89236C2.3219 2.78338 1.84765 2.98764 1.6016 3.41423C1.27139 3.98675 1.04654 4.60032 0.947629 5.25525C0.800082 6.23221 0.955142 7.17095 1.32751 8.07853C1.35749 8.1516 1.34995 8.19349 1.29096 8.24524C1.08331 8.42736 0.962933 8.66486 0.949268 8.93513C0.910902 9.69404 1.01208 10.4368 1.27821 11.1509C1.52244 11.8062 1.89352 12.3828 2.3974 12.8704C2.45672 12.9277 2.46141 12.9815 2.43845 13.0545C2.38204 13.2339 2.3858 13.4163 2.43499 13.5964C2.50835 13.8652 2.6115 14.1232 2.72919 14.3753C3.06538 15.0956 3.53948 15.7071 4.16366 16.2021C4.35426 16.3532 4.55781 16.4852 4.78138 16.6314C4.71877 16.6576 4.68142 16.6771 4.6418 16.6892C4.27671 16.8009 3.90624 16.8861 3.52714 16.9383C2.90325 17.0242 2.27946 17.0379 1.652 16.984C1.39164 16.9617 1.13266 16.8953 0.866425 16.9624C0.430523 17.0721 0.139301 17.3375 0.0339547 17.7688C-0.0689317 18.19 0.064014 18.5544 0.405381 18.8294C0.645647 19.0229 0.901422 19.1957 1.16248 19.3604C2.34499 20.1061 3.63997 20.5574 5.00603 20.816C5.76925 20.9605 6.5417 21.0317 7.31819 21.0483C8.06806 21.0645 8.81443 21.017 9.5597 20.9274C10.1261 20.8594 10.6812 20.7469 11.227 20.586C11.9433 20.3747 12.6458 20.1252 13.3268 19.8164C14.2982 19.376 15.2104 18.8383 16.0466 18.175C17.0484 17.3802 17.9029 16.4521 18.6046 15.3804C19.0099 14.7614 19.3586 14.114 19.6528 13.4373C20.1062 12.3948 20.4178 11.3082 20.6099 10.189C20.7262 9.51109 20.808 8.82783 20.807 8.13808C20.8068 8.03287 20.8432 7.96113 20.9174 7.89066C21.3827 7.44885 21.8384 6.99722 22.2517 6.50559C22.4945 6.2169 22.7267 5.9204 22.8909 5.57633C23.158 5.01672 22.8994 4.43703 22.4968 4.18875L22.4968 4.18875ZM21.538 5.51311C21.2116 5.93756 20.8463 6.3278 20.462 6.69857C20.2425 6.91037 20.0286 7.12938 19.7946 7.32601C19.694 7.4106 19.6553 7.50908 19.6535 7.64425C19.6495 7.93023 19.6591 8.21759 19.6321 8.50224C19.5904 8.94082 19.5496 9.37949 19.477 9.81512C19.3987 10.2852 19.3015 10.7508 19.1754 11.2095C18.9801 11.9198 18.7297 12.6102 18.416 13.2786C18.1217 13.9055 17.7727 14.4988 17.3749 15.0637C17.1272 15.4156 16.85 15.7447 16.5632 16.0664C16.3211 16.338 16.0584 16.5876 15.7901 16.8311C15.5084 17.0869 15.2077 17.3203 14.8989 17.5437C14.3416 17.9469 13.7522 18.2961 13.1333 18.5938C12.4557 18.9195 11.7561 19.1891 11.0327 19.3986C10.6416 19.5119 10.2512 19.6291 9.85015 19.6946C9.48665 19.7539 9.11935 19.7922 8.7507 19.8198C8.34691 19.85 7.94362 19.8619 7.53939 19.861C7.02468 19.8598 6.51214 19.8273 6.0006 19.7674C5.42903 19.7006 4.86661 19.5892 4.30902 19.45C4.0878 19.4077 3.87611 19.3323 3.66351 19.261C3.01212 19.0424 2.39072 18.7584 1.80525 18.3978C1.69984 18.3328 1.59787 18.2623 1.47836 18.1839C1.54592 18.1598 1.59454 18.1688 1.64147 18.1733C2.39171 18.246 3.13654 18.202 3.87927 18.0813C4.7112 17.9461 5.49861 17.6876 6.21984 17.2466C6.6424 16.9883 7.02881 16.6771 7.43306 16.3919C7.45029 16.3797 7.48149 16.3717 7.47476 16.344C7.46665 16.3106 7.43185 16.302 7.40351 16.2942C7.10601 16.2127 6.80929 16.1279 6.51012 16.0529C5.25803 15.739 4.32008 15.0388 3.77903 13.8458C3.7271 13.7313 3.68766 13.6116 3.63599 13.4979C3.59 13.3967 3.63809 13.375 3.71527 13.346C3.93246 13.2643 4.14827 13.1787 4.36332 13.0915C4.48264 13.0431 4.48227 13.0348 4.37442 12.9527C4.09247 12.7381 3.80472 12.5307 3.5291 12.3083C2.98663 11.8705 2.59032 11.325 2.35577 10.6656C2.34429 10.6333 2.32932 10.6023 2.31597 10.5707C2.18571 10.1791 2.11723 9.7764 2.09765 9.36482C2.09692 9.34959 2.09722 9.33428 2.09757 9.31902C2.09995 9.21754 2.12097 9.19995 2.21441 9.24795C2.37023 9.32799 2.52553 9.40935 2.67946 9.49311C3.01736 9.67697 3.35916 9.85351 3.69657 10.0383C3.7199 10.051 3.74551 10.0735 3.76916 10.0522C3.79966 10.0247 3.77152 9.99467 3.75731 9.97056C3.71095 9.89191 3.66158 9.81505 3.618 9.7348C3.31406 9.22698 3.00949 8.7195 2.7041 8.2125C2.66306 8.14436 2.63012 8.07123 2.59034 8.00206C2.19886 7.25937 2.00804 6.47199 2.0924 5.63196C2.14308 5.12724 2.30214 4.65127 2.54224 4.2029C2.58174 4.12914 2.61204 4.13935 2.65919 4.19093C3.1596 4.73849 3.70758 5.23519 4.28161 5.70382C4.58838 5.95425 4.90823 6.18755 5.22758 6.42146C5.43907 6.58494 5.66794 6.72294 5.89438 6.86329C6.27645 7.10012 6.67177 7.31416 7.07833 7.50675C7.50864 7.71059 7.94934 7.88871 8.40278 8.03401C8.81926 8.16747 9.24347 8.27311 9.67484 8.34369C10.0428 8.40388 10.4141 8.44439 10.7877 8.44821C10.9786 8.45016 11.169 8.46517 11.3601 8.46258C11.4438 8.46145 11.4725 8.44352 11.4614 8.35023C11.4348 8.12743 11.3864 7.90674 11.3737 7.68339C11.3508 7.27968 11.3614 6.87745 11.4426 6.47724C11.5596 5.90021 11.7884 5.37453 12.1302 4.89802C12.3805 4.54903 12.6799 4.24629 13.0254 3.98983C13.3113 3.77759 13.6183 3.60185 13.95 3.47342C14.3134 3.3327 14.6879 3.2335 15.0794 3.20702C15.1894 3.19958 15.2983 3.18376 15.4094 3.18391C16.1 3.18486 16.7532 3.33753 17.3649 3.65975C17.687 3.82945 17.9841 4.03556 18.2483 4.2875C18.3036 4.34024 18.362 4.39209 18.424 4.43361C18.5106 4.49163 18.618 4.46163 18.7143 4.45551C19.2257 4.42296 19.7251 4.32878 20.2053 4.14402C20.4792 4.03863 20.7477 3.92219 21 3.77085C21.0196 3.7591 21.038 3.74514 21.0594 3.73648C21.0807 3.72787 21.1027 3.71669 21.1234 3.73551C21.1445 3.75457 21.1339 3.77718 21.1275 3.79907C21.0797 3.96221 20.9985 4.11019 20.8997 4.24548C20.479 4.82133 20.0102 5.35925 19.5725 5.92179C19.5361 5.96864 19.4485 6.01707 19.4925 6.07788C19.527 6.12549 19.6053 6.06717 19.6594 6.04876C20.0958 5.90013 20.5369 5.76616 20.9739 5.61929C21.1466 5.56124 21.3207 5.50649 21.4928 5.44588C21.5167 5.43746 21.5457 5.41589 21.5647 5.44482C21.5828 5.47233 21.5538 5.49254 21.538 5.51311L21.538 5.51311Z" fill="#D9D9D9"/>
</svg>
