<svg width="36" height="35" viewBox="0 0 36 35" fill="none" xmlns="http://www.w3.org/2000/svg">
<path fill-rule="evenodd" clip-rule="evenodd" d="M17.5 0.469971C8.11116 0.469971 0.5 8.08113 0.5 17.47C0.5 26.8588 8.11116 34.47 17.5 34.47H18.5C27.8888 34.47 35.5 26.8588 35.5 17.47C35.5 8.08113 27.8888 0.469971 18.5 0.469971H17.5ZM17.4252 25.5441C17.4252 25.0945 17.0643 24.7278 16.6218 24.7278C16.1792 24.7278 15.8183 25.0945 15.8183 25.5441C15.8183 25.9938 16.1792 26.3605 16.6218 26.3605C17.0643 26.3605 17.4252 25.9938 17.4252 25.5441ZM28.4502 18.8604C28.4502 19.3101 28.8111 19.6768 29.2537 19.6768C29.6962 19.6768 30.0572 19.3101 30.0572 18.8604C30.0572 18.4108 29.6962 18.0441 29.2537 18.0441C28.8111 18.0441 28.4502 18.4108 28.4502 18.8604ZM26.7617 18.8604C26.7617 17.4678 27.8788 16.3328 29.2537 16.3328H29.258C30.6329 16.3328 31.75 17.4678 31.75 18.8604C31.75 20.253 30.6329 21.3881 29.258 21.3881C28.7037 21.3881 28.1624 21.196 27.7241 20.8511L19.1138 25.5834C19.0923 26.9586 17.9838 28.0718 16.6218 28.0718C15.3844 28.0718 14.336 27.1419 14.1598 25.9065L6.34437 21.8159C5.06399 21.1349 4.16601 19.2708 4.25624 17.4853C4.31209 16.359 4.77183 15.4509 5.51084 14.9969C5.90021 14.7512 12.5101 11.4307 17.8102 8.76816C18.0662 8.63957 18.3191 8.51252 18.5681 8.38741L18.856 8.24335C19.0064 8.14731 19.8399 7.68456 20.8797 8.23462C22.075 8.86788 24.7844 10.1562 27.1875 11.2988L27.2343 11.3211C27.3488 11.3755 27.4637 11.4301 27.5784 11.4846C28.5953 11.9677 29.6006 12.4453 30.2763 12.7748C30.2806 12.7748 30.6845 12.932 30.6845 13.3292C30.6845 13.6174 30.4567 13.8051 30.2634 13.8793L17.0128 20.8686C16.3038 21.2091 16.0718 21.1305 15.655 20.9341C15.3844 20.8075 8.97387 17.3849 7.01464 16.3371L6.96737 16.3109C6.70958 16.1712 6.46038 16.1625 6.25844 16.2804C5.94049 16.4681 5.72567 16.9483 5.69559 17.5682C5.63114 18.7557 6.21547 20.061 6.99745 20.4757L14.3876 24.4353C14.8086 23.5709 15.6722 23.0208 16.6218 23.0208C17.4424 23.0208 18.1986 23.4268 18.6669 24.1078L26.8949 19.6637C26.8046 19.4018 26.7617 19.1311 26.7617 18.8604Z" fill="#D9D9D9"/>
</svg>
