<svg width="26" height="24" viewBox="0 0 26 24" fill="none" xmlns="http://www.w3.org/2000/svg">
<path d="M24.9991 11.7215C24.9991 13.5504 24.9992 15.3793 24.9989 17.2082C24.9989 17.2929 25.0033 17.3783 24.9941 17.462C24.9602 17.7728 24.7021 18.0041 24.3932 18.0061C24.0846 18.008 23.822 17.779 23.7849 17.4699C23.7749 17.3863 23.7793 17.3008 23.7793 17.2162C23.7791 13.5414 23.7791 9.86664 23.7793 6.19189C23.7793 6.1157 23.7755 6.039 23.7827 5.96342C23.8135 5.64114 24.0793 5.40238 24.398 5.40687C24.7067 5.41122 24.9626 5.64426 24.9946 5.95558C25.0032 6.03945 24.9989 6.12476 24.9989 6.2094C24.9991 8.04678 24.9991 9.88413 24.9991 11.7215Z" fill="#D9D9D9"/>
<path d="M12.4213 7.78826C10.2995 4.63513 6.06787 4.06349 3.27178 6.54971C0.474234 9.03724 0.223445 13.5167 2.7251 16.3144C4.78298 18.6158 8.03957 19.1026 10.5748 17.4324C12.6132 16.0895 13.5337 14.1153 13.6122 11.9669C13.5995 10.2874 13.2189 8.97363 12.4213 7.78826ZM10.1188 16.2702C8.13044 17.7246 5.48338 17.4453 3.75295 15.6331C1.65127 13.4321 1.72056 9.74786 3.90351 7.62767C6.13561 5.45977 9.62318 5.84262 11.3964 8.45022C12.0446 9.40332 12.3867 10.5243 12.3882 12.01C12.3404 13.5742 11.656 15.1458 10.1188 16.2702Z" fill="#D9D9D9"/>
<path d="M21.3298 8.45284C21.0758 7.5513 20.7372 6.68627 20.0506 6.01144C19.2279 5.20291 18.1667 5.20548 17.3394 6.00776C16.8873 6.4462 16.5757 6.97967 16.3621 7.5627C15.4375 10.0861 15.4165 12.6426 16.1381 15.2136C16.366 16.0257 16.7151 16.7865 17.3285 17.3922C18.1585 18.2118 19.2261 18.21 20.0579 17.3961C20.5017 16.9619 20.7957 16.431 21.0239 15.8626C21.5581 14.5318 21.732 13.1368 21.7457 11.8696C21.7434 10.6099 21.63 9.51814 21.3298 8.45284ZM19.81 15.5973C19.6596 15.9392 19.4746 16.2617 19.2033 16.5252C18.8448 16.8733 18.546 16.8761 18.1904 16.5296C17.8437 16.1917 17.6321 15.7685 17.4636 15.3235C16.9234 13.8964 16.8009 12.4125 16.8909 10.9046C16.9542 9.84411 17.1381 8.80659 17.5729 7.8269C17.7245 7.48539 17.9065 7.16173 18.1759 6.89648C18.5419 6.53622 18.8438 6.53329 19.2069 6.89153C19.545 7.22515 19.7514 7.64137 19.9203 8.07693C20.3734 9.24538 20.5128 10.4668 20.528 11.7475C20.5072 13.0457 20.355 14.358 19.81 15.5973Z" fill="#D9D9D9"/>
<path d="M24.9991 11.7215C24.9991 13.5504 24.9992 15.3793 24.9989 17.2082C24.9989 17.2929 25.0033 17.3783 24.9941 17.462C24.9602 17.7728 24.7021 18.0041 24.3932 18.0061C24.0846 18.008 23.822 17.779 23.7849 17.4699C23.7749 17.3863 23.7793 17.3008 23.7793 17.2162C23.7791 13.5414 23.7791 9.86664 23.7793 6.19189C23.7793 6.1157 23.7755 6.039 23.7827 5.96342C23.8135 5.64114 24.0793 5.40238 24.398 5.40687C24.7067 5.41122 24.9626 5.64426 24.9946 5.95558C25.0032 6.03945 24.9989 6.12476 24.9989 6.2094C24.9991 8.04678 24.9991 9.88413 24.9991 11.7215Z" stroke="#D9D9D9" stroke-width="0.2"/>
<path d="M12.4213 7.78826C10.2995 4.63513 6.06787 4.06349 3.27178 6.54971C0.474234 9.03724 0.223445 13.5167 2.7251 16.3144C4.78298 18.6158 8.03957 19.1026 10.5748 17.4324C12.6132 16.0895 13.5337 14.1153 13.6122 11.9669C13.5995 10.2874 13.2189 8.97363 12.4213 7.78826ZM10.1188 16.2702C8.13044 17.7246 5.48338 17.4453 3.75295 15.6331C1.65127 13.4321 1.72056 9.74786 3.90351 7.62767C6.13561 5.45977 9.62318 5.84262 11.3964 8.45022C12.0446 9.40332 12.3867 10.5243 12.3882 12.01C12.3404 13.5742 11.656 15.1458 10.1188 16.2702Z" stroke="#D9D9D9" stroke-width="0.2"/>
<path d="M21.3298 8.45284C21.0758 7.5513 20.7372 6.68627 20.0506 6.01144C19.2279 5.20291 18.1667 5.20548 17.3394 6.00776C16.8873 6.4462 16.5757 6.97967 16.3621 7.5627C15.4375 10.0861 15.4165 12.6426 16.1381 15.2136C16.366 16.0257 16.7151 16.7865 17.3285 17.3922C18.1585 18.2118 19.2261 18.21 20.0579 17.3961C20.5017 16.9619 20.7957 16.431 21.0239 15.8626C21.5581 14.5318 21.732 13.1368 21.7457 11.8696C21.7434 10.6099 21.63 9.51814 21.3298 8.45284ZM19.81 15.5973C19.6596 15.9392 19.4746 16.2617 19.2033 16.5252C18.8448 16.8733 18.546 16.8761 18.1904 16.5296C17.8437 16.1917 17.6321 15.7685 17.4636 15.3235C16.9234 13.8964 16.8009 12.4125 16.8909 10.9046C16.9542 9.84411 17.1381 8.80659 17.5729 7.8269C17.7245 7.48539 17.9065 7.16173 18.1759 6.89648C18.5419 6.53622 18.8438 6.53329 19.2069 6.89153C19.545 7.22515 19.7514 7.64137 19.9203 8.07693C20.3734 9.24538 20.5128 10.4668 20.528 11.7475C20.5072 13.0457 20.355 14.358 19.81 15.5973Z" stroke="#D9D9D9" stroke-width="0.2"/>
</svg>
