<svg width="16" height="17" viewBox="0 0 16 17" fill="none" xmlns="http://www.w3.org/2000/svg">
<g clip-path="url(#clip0_939_18728)">
<path d="M1.37002 8.68734L1.42142 8.57427C1.52421 8.32757 1.79146 8.17338 2.04844 8.2145C2.33625 8.25561 2.54183 8.4612 2.57267 8.73873C2.57267 8.81068 2.57267 8.87236 2.57267 8.94431C2.57267 10.3834 2.57267 11.8122 2.57267 13.2512C2.57267 13.3026 2.57267 13.3643 2.57267 13.426H13.4274V13.2615C13.4274 11.8122 13.4274 10.3731 13.4274 8.92375C13.4274 8.82096 13.4274 8.71817 13.4582 8.62566C13.5302 8.35841 13.7974 8.17338 14.0647 8.19394C14.373 8.2145 14.5992 8.44064 14.63 8.73873C14.63 8.77985 14.63 8.82096 14.63 8.87236C14.63 10.5684 14.63 12.2747 14.63 13.9708C14.63 14.2997 14.4758 14.5361 14.188 14.6081C14.1058 14.6286 14.0133 14.6389 13.931 14.6389C9.9736 14.6389 6.01616 14.6389 2.05872 14.6389C1.70923 14.6389 1.48309 14.4847 1.35974 14.1558V8.68734H1.37002Z" fill="#18191C"/>
<path d="M8.64763 10.1574C8.64763 10.1574 8.68874 10.0751 8.72986 10.034C9.27465 9.48923 9.80916 8.94444 10.3642 8.39965C10.652 8.11184 11.0427 8.1324 11.2791 8.42021C11.4538 8.63607 11.4641 8.94444 11.2791 9.1603C11.238 9.2117 11.1968 9.25281 11.1557 9.29393C10.2614 10.1882 9.36716 11.0825 8.47288 11.9768C8.16451 12.2954 7.8253 12.2954 7.50665 11.9768C6.60209 11.0722 5.69754 10.1677 4.79298 9.26309C4.51544 8.98556 4.49488 8.64635 4.72102 8.37909C4.93688 8.14267 5.29665 8.11184 5.54335 8.31742C5.59474 8.35854 5.63586 8.39965 5.67698 8.44077C6.20121 8.965 6.72544 9.48923 7.24967 10.0135C7.28051 10.0443 7.32163 10.0751 7.3833 10.1368V9.96207C7.3833 7.58761 7.3833 5.20286 7.3833 2.8284C7.3833 2.60226 7.4347 2.40695 7.61972 2.26305C7.80474 2.11914 8.02061 2.09858 8.22619 2.19109C8.44205 2.28361 8.5654 2.45835 8.57568 2.69477C8.57568 2.75644 8.57568 2.81812 8.57568 2.87979C8.57568 5.2337 8.57568 7.59788 8.57568 9.95179V10.106L8.62707 10.1368L8.64763 10.1574Z" fill="#18191C"/>
</g>
<defs>
<clipPath id="clip0_939_18728">
<rect width="13.26" height="12.4891" fill="white" transform="translate(1.37 2.16016)"/>
</clipPath>
</defs>
</svg>
