<svg width="34" height="35" viewBox="0 0 34 35" fill="none" xmlns="http://www.w3.org/2000/svg">
<path fill-rule="evenodd" clip-rule="evenodd" d="M0 17.97C0 8.58113 7.61116 0.969971 17 0.969971C26.3888 0.969971 34 8.58113 34 17.97C34 27.3588 26.3888 34.97 17 34.97C7.61116 34.97 0 27.3588 0 17.97ZM23.4813 13.1887C24.225 13.0825 24.8625 12.9762 25.5 12.6575C25.075 13.4012 24.4375 14.0387 23.6937 14.4637C23.9062 19.4575 20.2938 24.8762 13.8125 24.8762C11.9 24.8762 10.0938 24.2387 8.5 23.2825C10.3062 23.495 12.2188 22.9637 13.4937 22.0075C11.9 22.0075 10.625 20.945 10.2 19.5637C10.7313 19.67 11.2625 19.5637 11.7938 19.4575C10.2 19.0325 9.03125 17.545 9.03125 15.9512C9.5625 16.1637 10.0938 16.3762 10.625 16.3762C9.1375 15.3137 8.60625 13.295 9.5625 11.7012C11.3687 13.8262 13.9188 15.2075 16.7875 15.3137C16.2563 13.1887 17.9562 11.0637 20.1875 11.0637C21.1437 11.0637 22.1 11.4887 22.7375 12.1262C23.5875 11.9137 24.3312 11.7012 24.9688 11.2762C24.7562 12.1262 24.225 12.7637 23.4813 13.1887Z" fill="white"/>
</svg>
