<svg width="26" height="24" viewBox="0 0 26 24" fill="none" xmlns="http://www.w3.org/2000/svg">
<path d="M24.9958 16.8565C24.9438 16.3991 24.8815 15.9433 24.8054 15.4894C24.6076 14.3094 24.3524 13.1412 24.0871 11.9748C23.5592 9.65404 22.7919 7.41831 21.7411 5.28098C21.673 5.14252 21.5819 5.04088 21.4471 4.96253C20.1472 4.20651 18.7686 3.6407 17.3188 3.24576C16.9197 3.13703 16.5153 3.05417 16.1035 3.00772C15.7521 2.96807 15.5983 3.09033 15.5551 3.44528C15.5325 3.63103 15.4989 3.8155 15.4788 4.00148C15.4694 4.08756 15.4384 4.10551 15.354 4.0964C14.7558 4.03182 14.1553 4 13.554 3.98736C12.5811 3.96691 11.6096 3.9958 10.6412 4.09747C10.558 4.10621 10.525 4.08904 10.5152 4.00018C10.4917 3.78716 10.4563 3.57545 10.4253 3.36326C10.3892 3.11549 10.2439 2.99313 9.97945 3.0003C9.63137 3.02374 9.27448 3.08795 8.92248 3.17664C7.35681 3.57112 5.87986 4.18167 4.48944 5.00211C4.39823 5.05594 4.33587 5.13052 4.28976 5.22403C3.38863 7.05217 2.67539 8.95049 2.17382 10.9262C1.77685 12.4898 1.43431 14.0656 1.17206 15.6579C1.10744 16.0502 1.06098 16.4455 1.00721 16.8396C0.986945 16.9881 1.00515 17.1236 1.11703 17.2402C2.1102 18.2754 3.26394 19.078 4.58695 19.6341C5.71659 20.1089 6.88908 20.4304 8.10307 20.6003C8.38162 20.6393 8.47863 20.5953 8.62051 20.3525C8.92502 19.8312 9.23104 19.3108 9.53251 18.7878C9.57371 18.7164 9.61104 18.6986 9.69585 18.7124C10.5055 18.8442 11.3201 18.9287 12.1403 18.9604C13.5296 19.014 14.911 18.9402 16.2828 18.712C16.3866 18.6947 16.4313 18.7166 16.4818 18.805C16.7851 19.3359 17.0951 19.863 17.4036 20.391C17.5104 20.5739 17.6443 20.6396 17.8398 20.612C18.6206 20.5016 19.3877 20.3312 20.143 20.1033C21.9469 19.5591 23.5302 18.65 24.8449 17.2894C24.9664 17.1636 25.0154 17.0283 24.9958 16.8565ZM24.1777 16.9038C23.1595 17.8989 21.9857 18.6455 20.6443 19.13C19.799 19.4353 18.9346 19.6629 18.0501 19.8179C17.9748 19.8311 17.9335 19.8149 17.8929 19.7433C17.68 19.3671 17.4632 18.9928 17.2392 18.6231C17.1805 18.5264 17.2096 18.5108 17.3004 18.4853C18.5716 18.1291 19.762 17.6027 20.8189 16.7996C20.9741 16.6817 21.1235 16.5553 21.268 16.4244C21.4312 16.2766 21.4429 16.0455 21.3056 15.8901C21.1684 15.7347 20.9331 15.7164 20.7706 15.8613C19.7755 16.7484 18.5986 17.2928 17.3413 17.6866C16.665 17.8984 15.9676 18.0033 15.2669 18.0916C14.3272 18.2101 13.3836 18.2452 12.4377 18.2212C11.3548 18.1938 10.2756 18.1013 9.22207 17.8475C7.83324 17.5128 6.5425 16.9519 5.42511 16.0381C5.35864 15.9838 5.29651 15.9241 5.23002 15.8698C5.0583 15.7296 4.83549 15.7442 4.69488 15.903C4.55821 16.0574 4.57221 16.2906 4.73392 16.4379C5.17709 16.8417 5.66704 17.1808 6.18879 17.4744C7.00048 17.9311 7.85825 18.2747 8.75816 18.5139C8.7729 18.5178 8.78664 18.5255 8.81629 18.5378C8.56864 18.9621 8.32464 19.3787 8.083 19.7966C8.05772 19.8403 8.03097 19.8402 7.98745 19.8327C6.66439 19.6042 5.38219 19.2451 4.18459 18.625C3.30879 18.1715 2.52652 17.5877 1.82544 16.894C1.76353 16.8327 1.77118 16.7717 1.78004 16.7032C1.86204 16.0689 1.96457 15.4378 2.08321 14.8094C2.33842 13.4579 2.63601 12.1156 2.99243 10.787C3.46467 9.02672 4.10644 7.32913 4.89859 5.68799C4.92288 5.63768 4.95309 5.59914 5.0043 5.57023C6.22701 4.87999 7.50929 4.3336 8.86844 3.9747C9.12815 3.90612 9.39354 3.85909 9.65605 3.80101C9.71085 3.78889 9.74199 3.79346 9.74656 3.86307C9.75241 3.95221 9.76814 4.04137 9.78757 4.12875C9.80706 4.21639 9.77555 4.24536 9.68966 4.26784C8.52433 4.57293 7.40628 4.99648 6.36663 5.61238C6.15865 5.73558 5.95519 5.86615 5.76025 6.00941C5.57576 6.14501 5.53326 6.37069 5.65852 6.54379C5.78152 6.71376 6.00544 6.75222 6.18758 6.6241C7.41152 5.7632 8.78535 5.25171 10.228 4.91166C10.6486 4.81252 11.0878 4.80896 11.5201 4.7815C12.5074 4.7188 13.4942 4.74079 14.4826 4.77523C15.7276 4.81861 16.8922 5.15959 18.0265 5.63995C18.6488 5.90352 19.2435 6.21757 19.7957 6.60956C19.9949 6.75094 20.2152 6.72199 20.3439 6.54498C20.4741 6.36598 20.4276 6.13992 20.2256 5.99615C19.4167 5.42041 18.5285 5.00013 17.5984 4.66289C17.1735 4.50884 16.7432 4.37164 16.3038 4.26534C16.2203 4.24513 16.1979 4.21031 16.216 4.13011C16.2348 4.04661 16.2512 3.96123 16.2551 3.87605C16.2586 3.79649 16.2905 3.78995 16.3584 3.80251C17.0996 3.93955 17.8191 4.15073 18.5241 4.41655C19.3673 4.73444 20.1832 5.109 20.9677 5.55252C21.0359 5.5911 21.0793 5.6394 21.1134 5.70925C22.1768 7.88534 22.9349 10.1655 23.4548 12.5285C23.6826 13.5637 23.9017 14.6004 24.0767 15.646C24.1391 16.0189 24.1869 16.3943 24.2461 16.7679C24.2571 16.8372 24.2157 16.8666 24.1777 16.9038Z" fill="#D9D9D9"/>
<path d="M10.8037 11.0611C10.0122 10.3399 8.86326 10.3616 8.10266 11.1163C7.61495 11.6003 7.39769 12.1971 7.38788 12.7885C7.38882 13.4861 7.5965 14.0569 7.97838 14.4991C8.74078 15.3818 9.99309 15.4503 10.8355 14.6554C11.8306 13.7164 11.8152 11.9828 10.8037 11.0611ZM10.4112 14.0213C9.79369 14.7105 8.80624 14.579 8.35482 13.7483C8.20834 13.4788 8.13984 13.1905 8.13952 12.7936C8.14285 12.4532 8.26532 12.0624 8.55474 11.7355C9.07568 11.1469 9.86866 11.1437 10.3985 11.724C10.9588 12.3374 10.9646 13.4037 10.4112 14.0213Z" fill="#D9D9D9"/>
<path d="M18.1547 11.4134C17.4225 10.3854 16.0612 10.238 15.1688 11.089C14.2014 12.0115 14.1787 13.6609 15.1204 14.609C15.9137 15.4076 17.1194 15.4125 17.914 14.614C18.392 14.1337 18.6044 13.5418 18.6141 12.93C18.6101 12.3381 18.4651 11.8491 18.1547 11.4134ZM17.3947 14.0801C16.8711 14.6116 16.1072 14.5942 15.6045 14.0435C15.0457 13.4314 15.0367 12.3641 15.585 11.744C16.1638 11.0896 17.0767 11.1562 17.5679 11.889C17.7692 12.1893 17.8602 12.5225 17.8642 12.9127C17.8556 13.3392 17.7211 13.7488 17.3947 14.0801Z" fill="#D9D9D9"/>
<path d="M24.9958 16.8565C24.9438 16.3991 24.8815 15.9433 24.8054 15.4894C24.6076 14.3094 24.3524 13.1412 24.0871 11.9748C23.5592 9.65404 22.7919 7.41831 21.7411 5.28098C21.673 5.14252 21.5819 5.04088 21.4471 4.96253C20.1472 4.20651 18.7686 3.6407 17.3188 3.24576C16.9197 3.13703 16.5153 3.05417 16.1035 3.00772C15.7521 2.96807 15.5983 3.09033 15.5551 3.44528C15.5325 3.63103 15.4989 3.8155 15.4788 4.00148C15.4694 4.08756 15.4384 4.10551 15.354 4.0964C14.7558 4.03182 14.1553 4 13.554 3.98736C12.5811 3.96691 11.6096 3.9958 10.6412 4.09747C10.558 4.10621 10.525 4.08904 10.5152 4.00018C10.4917 3.78716 10.4563 3.57545 10.4253 3.36326C10.3892 3.11549 10.2439 2.99313 9.97945 3.0003C9.63137 3.02374 9.27448 3.08795 8.92248 3.17664C7.35681 3.57112 5.87986 4.18167 4.48944 5.00211C4.39823 5.05594 4.33587 5.13052 4.28976 5.22403C3.38863 7.05217 2.67539 8.95049 2.17382 10.9262C1.77685 12.4898 1.43431 14.0656 1.17206 15.6579C1.10744 16.0502 1.06098 16.4455 1.00721 16.8396C0.986945 16.9881 1.00515 17.1236 1.11703 17.2402C2.1102 18.2754 3.26394 19.078 4.58695 19.6341C5.71659 20.1089 6.88908 20.4304 8.10307 20.6003C8.38162 20.6393 8.47863 20.5953 8.62051 20.3525C8.92502 19.8312 9.23104 19.3108 9.53251 18.7878C9.57371 18.7164 9.61104 18.6986 9.69585 18.7124C10.5055 18.8442 11.3201 18.9287 12.1403 18.9604C13.5296 19.014 14.911 18.9402 16.2828 18.712C16.3866 18.6947 16.4313 18.7166 16.4818 18.805C16.7851 19.3359 17.0951 19.863 17.4036 20.391C17.5104 20.5739 17.6443 20.6396 17.8398 20.612C18.6206 20.5016 19.3877 20.3312 20.143 20.1033C21.9469 19.5591 23.5302 18.65 24.8449 17.2894C24.9664 17.1636 25.0154 17.0283 24.9958 16.8565ZM24.1777 16.9038C23.1595 17.8989 21.9857 18.6455 20.6443 19.13C19.799 19.4353 18.9346 19.6629 18.0501 19.8179C17.9748 19.8311 17.9335 19.8149 17.8929 19.7433C17.68 19.3671 17.4632 18.9928 17.2392 18.6231C17.1805 18.5264 17.2096 18.5108 17.3004 18.4853C18.5716 18.1291 19.762 17.6027 20.8189 16.7996C20.9741 16.6817 21.1235 16.5553 21.268 16.4244C21.4312 16.2766 21.4429 16.0455 21.3056 15.8901C21.1684 15.7347 20.9331 15.7164 20.7706 15.8613C19.7755 16.7484 18.5986 17.2928 17.3413 17.6866C16.665 17.8984 15.9676 18.0033 15.2669 18.0916C14.3272 18.2101 13.3836 18.2452 12.4377 18.2212C11.3548 18.1938 10.2756 18.1013 9.22207 17.8475C7.83324 17.5128 6.5425 16.9519 5.42511 16.0381C5.35864 15.9838 5.29651 15.9241 5.23002 15.8698C5.0583 15.7296 4.83549 15.7442 4.69488 15.903C4.55821 16.0574 4.57221 16.2906 4.73392 16.4379C5.17709 16.8417 5.66704 17.1808 6.18879 17.4744C7.00048 17.9311 7.85825 18.2747 8.75816 18.5139C8.7729 18.5178 8.78664 18.5255 8.81629 18.5378C8.56864 18.9621 8.32464 19.3787 8.083 19.7966C8.05772 19.8403 8.03097 19.8402 7.98745 19.8327C6.66439 19.6042 5.38219 19.2451 4.18459 18.625C3.30879 18.1715 2.52652 17.5877 1.82544 16.894C1.76353 16.8327 1.77118 16.7717 1.78004 16.7032C1.86204 16.0689 1.96457 15.4378 2.08321 14.8094C2.33842 13.4579 2.63601 12.1156 2.99243 10.787C3.46467 9.02672 4.10644 7.32913 4.89859 5.68799C4.92288 5.63768 4.95309 5.59914 5.0043 5.57023C6.22701 4.87999 7.50929 4.3336 8.86844 3.9747C9.12815 3.90612 9.39354 3.85909 9.65605 3.80101C9.71085 3.78889 9.74199 3.79346 9.74656 3.86307C9.75241 3.95221 9.76814 4.04137 9.78757 4.12875C9.80706 4.21639 9.77555 4.24536 9.68966 4.26784C8.52433 4.57293 7.40628 4.99648 6.36663 5.61238C6.15865 5.73558 5.95519 5.86615 5.76025 6.00941C5.57576 6.14501 5.53326 6.37069 5.65852 6.54379C5.78152 6.71376 6.00544 6.75222 6.18758 6.6241C7.41152 5.7632 8.78535 5.25171 10.228 4.91166C10.6486 4.81252 11.0878 4.80896 11.5201 4.7815C12.5074 4.7188 13.4942 4.74079 14.4826 4.77523C15.7276 4.81861 16.8922 5.15959 18.0265 5.63995C18.6488 5.90352 19.2435 6.21757 19.7957 6.60956C19.9949 6.75094 20.2152 6.72199 20.3439 6.54498C20.4741 6.36598 20.4276 6.13992 20.2256 5.99615C19.4167 5.42041 18.5285 5.00013 17.5984 4.66289C17.1735 4.50884 16.7432 4.37164 16.3038 4.26534C16.2203 4.24513 16.1979 4.21031 16.216 4.13011C16.2348 4.04661 16.2512 3.96123 16.2551 3.87605C16.2586 3.79649 16.2905 3.78995 16.3584 3.80251C17.0996 3.93955 17.8191 4.15073 18.5241 4.41655C19.3673 4.73444 20.1832 5.109 20.9677 5.55252C21.0359 5.5911 21.0793 5.6394 21.1134 5.70925C22.1768 7.88534 22.9349 10.1655 23.4548 12.5285C23.6826 13.5637 23.9017 14.6004 24.0767 15.646C24.1391 16.0189 24.1869 16.3943 24.2461 16.7679C24.2571 16.8372 24.2157 16.8666 24.1777 16.9038Z" stroke="#D9D9D9" stroke-width="0.4"/>
<path d="M10.8037 11.0611C10.0122 10.3399 8.86326 10.3616 8.10266 11.1163C7.61495 11.6003 7.39769 12.1971 7.38788 12.7885C7.38882 13.4861 7.5965 14.0569 7.97838 14.4991C8.74078 15.3818 9.99309 15.4503 10.8355 14.6554C11.8306 13.7164 11.8152 11.9828 10.8037 11.0611ZM10.4112 14.0213C9.79369 14.7105 8.80624 14.579 8.35482 13.7483C8.20834 13.4788 8.13984 13.1905 8.13952 12.7936C8.14285 12.4532 8.26532 12.0624 8.55474 11.7355C9.07568 11.1469 9.86866 11.1437 10.3985 11.724C10.9588 12.3374 10.9646 13.4037 10.4112 14.0213Z" stroke="#D9D9D9" stroke-width="0.4"/>
<path d="M18.1547 11.4134C17.4225 10.3854 16.0612 10.238 15.1688 11.089C14.2014 12.0115 14.1787 13.6609 15.1204 14.609C15.9137 15.4076 17.1194 15.4125 17.914 14.614C18.392 14.1337 18.6044 13.5418 18.6141 12.93C18.6101 12.3381 18.4651 11.8491 18.1547 11.4134ZM17.3947 14.0801C16.8711 14.6116 16.1072 14.5942 15.6045 14.0435C15.0457 13.4314 15.0367 12.3641 15.585 11.744C16.1638 11.0896 17.0767 11.1562 17.5679 11.889C17.7692 12.1893 17.8602 12.5225 17.8642 12.9127C17.8556 13.3392 17.7211 13.7488 17.3947 14.0801Z" stroke="#D9D9D9" stroke-width="0.4"/>
</svg>
