<svg width="35" height="35" viewBox="0 0 35 35" fill="none" xmlns="http://www.w3.org/2000/svg">
  <rect y="0.969971" width="35" height="34" rx="17" fill="#D9D9D9"/>
  <path d="M12.524 11.1699C10.6877 11.1699 8.92655 11.8863 7.62806 13.1616C6.32958 14.4368 5.6001 16.1664 5.6001 17.9699C5.6001 19.7734 6.32958 21.503 7.62806 22.7782C8.92655 24.0535 10.6877 24.7699 12.524 24.7699C14.3603 24.7699 16.1215 24.0535 17.42 22.7782C18.7184 21.503 19.4479 19.7734 19.4479 17.9699C19.4479 16.1664 18.7184 14.4368 17.42 13.1616C16.1215 11.8863 14.3603 11.1699 12.524 11.1699V11.1699ZM23.4425 11.693C21.5304 11.693 19.9805 14.5035 19.9805 17.9699C19.9805 18.6201 20.0349 19.2468 20.1361 19.8363C20.2708 20.6224 20.4886 21.3422 20.7709 21.9626C20.9121 22.2728 21.0692 22.5578 21.2402 22.8136C21.5821 23.3252 21.9794 23.7201 22.413 23.9649C22.7384 24.148 23.084 24.2468 23.4425 24.2468C23.8009 24.2468 24.1466 24.148 24.472 23.9649C24.9056 23.7201 25.3029 23.3252 25.6448 22.8136C25.8158 22.5578 25.9729 22.2728 26.1141 21.9626C26.3963 21.3427 26.6142 20.6224 26.7489 19.8363C26.8501 19.2468 26.9044 18.6201 26.9044 17.9699C26.9044 14.5035 25.3546 11.693 23.4425 11.693ZM28.7686 12.2161C28.6306 12.2161 28.4975 12.3066 28.3728 12.475C28.2892 12.5869 28.2093 12.7334 28.1342 12.9107C28.0964 12.9991 28.0597 13.0954 28.0245 13.1989C27.9537 13.4056 27.8876 13.6415 27.8275 13.9014C27.7071 14.4219 27.6096 15.0423 27.542 15.7306C27.5084 16.0748 27.4823 16.4363 27.4642 16.8108C27.4461 17.1848 27.4371 17.5729 27.4371 17.9699C27.4371 18.3669 27.4461 18.7551 27.4642 19.1296C27.4818 19.5041 27.5079 19.8656 27.542 20.2097C27.6096 20.8981 27.7071 21.518 27.8275 22.0389C27.8876 22.2994 27.9537 22.5348 28.0245 22.7414C28.0597 22.845 28.0964 22.9412 28.1342 23.0296C28.2099 23.207 28.2898 23.3534 28.3728 23.4654C28.4975 23.6333 28.6306 23.7238 28.7686 23.7238C29.5041 23.7238 30.1001 21.1476 30.1001 17.9699C30.1001 14.7922 29.5041 12.2161 28.7686 12.2161Z" fill="black"/>
</svg>
