<svg width="36" height="35" viewBox="0 0 36 35" fill="none" xmlns="http://www.w3.org/2000/svg">
<path fill-rule="evenodd" clip-rule="evenodd" d="M17.5 0.469971C8.11116 0.469971 0.5 8.08113 0.5 17.47C0.5 26.8588 8.11116 34.47 17.5 34.47H18.5C27.8888 34.47 35.5 26.8588 35.5 17.47C35.5 8.08113 27.8888 0.469971 18.5 0.469971H17.5ZM18.8648 11.7133C17.0736 12.4537 13.4936 13.9861 8.1249 16.3105C7.2531 16.655 6.79642 16.992 6.75485 17.3215C6.68458 17.8785 7.38644 18.0978 8.34218 18.3964C8.47218 18.437 8.60688 18.4791 8.74498 18.5237C9.68528 18.8275 10.9501 19.1828 11.6077 19.1969C12.2042 19.2097 12.8699 18.9654 13.6049 18.4639C18.621 15.0991 21.2104 13.3983 21.3729 13.3617C21.4876 13.3358 21.6465 13.3033 21.7542 13.3984C21.8619 13.4935 21.8513 13.6736 21.8399 13.7219C21.7704 14.0165 19.0154 16.5617 17.5896 17.8789C17.1452 18.2895 16.8299 18.5808 16.7654 18.6473C16.6211 18.7963 16.4739 18.9373 16.3325 19.0728C15.459 19.9096 14.8039 20.5371 16.3688 21.5619C17.1208 22.0544 17.7226 22.4616 18.3229 22.8679C18.9786 23.3116 19.6325 23.7542 20.4787 24.3053C20.6942 24.4457 20.9001 24.5916 21.1006 24.7336C21.8637 25.2742 22.5492 25.7598 23.3961 25.6824C23.8882 25.6374 24.3965 25.1776 24.6546 23.8061C25.2647 20.5651 26.464 13.5427 26.7411 10.6489C26.7654 10.3954 26.7348 10.0709 26.7103 9.92847C26.6858 9.78604 26.6345 9.5831 26.4482 9.43287C26.2276 9.25495 25.8869 9.21743 25.7346 9.2201C25.0419 9.23223 23.9792 9.59943 18.8648 11.7133Z" fill="#D9D9D9"/>
</svg>
