<svg width="24" height="24" viewBox="0 0 24 24" fill="none" xmlns="http://www.w3.org/2000/svg">
<path d="M21.6981 2.0524C21.0788 1.89257 20.5304 2.12813 19.9805 2.35934C14.2089 4.786 8.43704 7.21224 2.66496 9.63788C2.32701 9.77989 1.98333 9.91225 1.69495 10.1456C1.16395 10.5753 0.890328 11.1131 1.04121 11.8094C1.22001 12.6344 1.8201 13.0502 2.55576 13.3064C3.73607 13.7175 4.92106 14.1157 6.10964 14.5021C6.32845 14.5733 6.44162 14.6816 6.50446 14.8977C6.72661 15.6614 6.9548 16.4237 7.19787 17.181C7.50611 18.1413 7.70647 19.1411 8.14831 20.0527C8.65056 21.0889 9.74296 21.2808 10.6039 20.5127C11.2262 19.9574 11.8478 19.4005 12.4486 18.8224C12.6673 18.612 12.8106 18.6083 13.0481 18.7948C14.1617 19.6691 15.2843 20.5322 16.4156 21.3835C17.7225 22.3669 19.5532 21.6717 19.8818 20.0741C20.0395 19.3074 20.1825 18.5376 20.3327 17.7693C21.0844 13.9273 21.8401 10.0861 22.5847 6.24278C22.7406 5.43844 22.9464 4.64165 23 3.98155C23.0052 2.91384 22.5281 2.26658 21.6981 2.05239V2.0524ZM20.3785 6.71645C19.5544 10.9415 18.7291 15.1664 17.9057 19.3916C17.8274 19.7933 17.7866 19.8145 17.4407 19.5502C16.0249 18.4682 14.6117 17.3827 13.1984 16.2974C12.6212 15.8542 12.6241 15.855 12.1017 16.3362C11.4978 16.8927 10.8913 17.4466 10.2821 17.9974C10.2124 18.0605 10.1597 18.1644 9.99389 18.1471C10.0842 17.5496 10.1738 16.9561 10.2638 16.3627C10.2676 16.3377 10.2805 16.3131 10.2794 16.2887C10.2347 15.2367 10.8505 14.5835 11.5769 13.9234C13.877 11.8332 16.1305 9.69161 18.401 7.56885C18.4931 7.48279 18.5849 7.39325 18.6595 7.29246C18.7846 7.12325 18.7848 6.93601 18.6749 6.7602C18.5727 6.59677 18.4066 6.59371 18.2358 6.6173C18.0416 6.64413 17.883 6.74687 17.7215 6.84683C14.5537 8.80885 11.3839 10.7677 8.22052 12.7368C7.9938 12.878 7.80926 12.898 7.55724 12.81C6.29699 12.3702 5.02913 11.9522 3.69446 11.5031C4.12902 11.2529 20.5165 4.36769 20.8454 4.29573C20.6878 5.11328 20.5348 5.91519 20.3785 6.71647L20.3785 6.71645Z" fill="#D9D9D9" stroke="black" stroke-width="0.8"/>
</svg>
