<svg width="22" height="22" viewBox="0 0 22 22" fill="none" xmlns="http://www.w3.org/2000/svg">
<path fill-rule="evenodd" clip-rule="evenodd" d="M16.4904 5.89692C16.834 6.24045 16.834 6.79742 16.4904 7.14095L7.1411 16.4903C6.79757 16.8338 6.2406 16.8338 5.89707 16.4903C5.55354 16.1467 5.55354 15.5898 5.89707 15.2462L15.2464 5.89692C15.5899 5.55339 16.1469 5.55339 16.4904 5.89692Z" fill="black"/>
<path fill-rule="evenodd" clip-rule="evenodd" d="M5.89629 5.89692C6.23982 5.55339 6.7968 5.55339 7.14033 5.89692L16.4896 15.2462C16.8332 15.5898 16.8332 16.1467 16.4896 16.4903C16.1461 16.8338 15.5891 16.8338 15.2456 16.4903L5.89629 7.14095C5.55276 6.79742 5.55276 6.24045 5.89629 5.89692Z" fill="black"/>
</svg>
