<svg width="23" height="17" viewBox="0 0 23 17" fill="none" xmlns="http://www.w3.org/2000/svg">
<path d="M16.9743 16.4286C16.9743 16.4286 16.2654 15.5876 15.6747 14.8444C18.2543 14.1208 19.2388 12.517 19.2388 12.517C18.4315 13.0451 17.6635 13.4167 16.9743 13.671C15.9898 14.0817 15.0445 14.3554 14.119 14.5119C12.2286 14.864 10.4957 14.7662 9.01888 14.4924C7.8964 14.2772 6.93151 13.9643 6.12414 13.6514C5.67123 13.4754 5.17894 13.2602 4.68664 12.9865C4.62757 12.9473 4.56849 12.9277 4.50942 12.8886C4.47003 12.8691 4.45034 12.8495 4.43065 12.83C4.0762 12.6344 3.87928 12.4975 3.87928 12.4975C3.87928 12.4975 4.82449 14.0621 7.32534 14.8053C6.73459 15.5485 6.00599 16.4286 6.00599 16.4286C1.65411 16.2916 0 13.4558 0 13.4558C0 7.15826 2.83561 2.05371 2.83561 2.05371C5.67123 -0.0585103 8.36904 0.000162529 8.36904 0.000162529L8.56594 0.234854C5.0214 1.25185 3.38699 2.79691 3.38699 2.79691C3.38699 2.79691 3.8202 2.56221 4.5488 2.22973C6.65582 1.31052 8.32961 1.05627 9.01888 0.9976C9.137 0.978042 9.23549 0.958484 9.35361 0.958484C10.5548 0.802025 11.9135 0.76291 13.3314 0.919367C15.202 1.13451 17.2107 1.68212 19.2586 2.79691C19.2586 2.79691 17.7029 1.33008 14.3553 0.313084L14.631 0.000162529C14.631 0.000162529 17.3288 -0.0585103 20.1643 2.05371C20.1643 2.05371 23 7.15826 23 13.4558C23 13.4558 21.3262 16.2916 16.9743 16.4286ZM7.81764 7.29516C6.6952 7.29516 5.80908 8.27302 5.80908 9.46606C5.80908 10.6591 6.7149 11.6369 7.81764 11.6369C8.9401 11.6369 9.82618 10.6591 9.82618 9.46606C9.84589 8.27302 8.9401 7.29516 7.81764 7.29516ZM15.0051 7.29516C13.8827 7.29516 12.9966 8.27302 12.9966 9.46606C12.9966 10.6591 13.9024 11.6369 15.0051 11.6369C16.1276 11.6369 17.0137 10.6591 17.0137 9.46606C17.0137 8.27302 16.1276 7.29516 15.0051 7.29516Z" fill="white"/>
</svg>
